<?xml version="1.0" encoding="UTF-8"?>
<!-- Generator: Adobe Illustrator 24.0.0, SVG Export Plug-In . SVG Version: 6.00 Build 0)  -->
<svg version="1.1" id="Layer_1" xmlns="http://www.w3.org/2000/svg" xmlns:xlink="http://www.w3.org/1999/xlink" x="0px" y="0px" viewBox="0 0 1021.1 395.6" style="enable-background:new 0 0 1021.1 395.6;" xml:space="preserve">
<style type="text/css">
	.st0{fill:#2A4421;}
	.st1{fill:#36542B;}
	.st2{fill:#D8B032;}
	.st3{fill:#F2ECDD;}
	.st4{fill:#151D23;}
	.st5{fill:#3A2B1B;}
	.st6{fill:#111111;}
	.st7{fill:#D8B032;stroke:#231A10;stroke-width:2.0262;stroke-linejoin:round;stroke-miterlimit:10;}
	.st8{fill:#0F1B28;stroke:#231A10;stroke-width:2.0262;stroke-linejoin:round;stroke-miterlimit:10;}
	.st9{fill:#33190C;}
	.st10{fill:#210E05;}
	.st11{fill:none;stroke:#000000;stroke-width:1.3601;stroke-miterlimit:10;}
	.st12{fill:none;stroke:#000000;stroke-width:1.3601;stroke-linecap:square;stroke-miterlimit:10;}
	.st13{fill:#352613;}
	.st14{fill:none;stroke:#000000;stroke-width:1.1028;stroke-miterlimit:10;}
	.st15{fill:none;stroke:#263238;stroke-width:1.1028;stroke-miterlimit:10;}
	.st16{fill:none;stroke:#000000;stroke-width:0.5514;stroke-miterlimit:10;}
	.st17{fill:none;stroke:#000000;stroke-width:0.5514;stroke-miterlimit:10;stroke-dasharray:0.5531,0.5531;}
	.st18{fill:none;stroke:#000000;stroke-width:1.1028;stroke-linejoin:round;stroke-miterlimit:10;}
	.st19{stroke:#000000;stroke-width:0.5514;stroke-miterlimit:10;}
	.st20{fill:#2E4351;}
	.st21{fill:#164159;}
	.st22{fill:#1D1D1B;}
	.st23{fill:#590F15;stroke:#1D1D1B;stroke-width:0.76;stroke-miterlimit:10;}
	.st24{fill:#22557E;stroke:#1D1D1B;stroke-width:0.38;stroke-miterlimit:10;}
	.st25{fill:#4E1012;stroke:#1D1D1B;stroke-width:0.76;stroke-linejoin:round;}
	.st26{fill:#181918;stroke:#1D1D1B;stroke-width:0.76;stroke-miterlimit:10;}
	.st27{fill:#383737;stroke:#1D1D1B;stroke-width:0.76;stroke-miterlimit:10;}
	.st28{fill:#121212;stroke:#1D1D1B;stroke-width:0.76;stroke-miterlimit:10;}
	.st29{fill:#0C2232;}
	.st30{fill:#111313;}
	.st31{fill:#2D2D2D;stroke:#1D1D1B;stroke-width:0.76;stroke-miterlimit:10;}
	.st32{fill:#009EE2;stroke:#888888;stroke-width:0.2261;stroke-miterlimit:10;}
	.st33{fill:#FFFFFF;stroke:#888888;stroke-width:0.2261;stroke-miterlimit:10;}
	.st34{fill:#301F13;}
	.st35{fill:#343D17;}
	.st36{fill:#414920;}
	.st37{fill:#152110;}
	.st38{fill:#4C3D2E;}
	.st39{fill:#352D21;}
	.st40{fill:#565142;}
	.st41{fill:#3A3830;}
	.st42{opacity:0.2;fill:url(#SVGID_1_);}
	.st43{fill:url(#SVGID_2_);}
	.st44{fill:url(#SVGID_3_);}
	.st45{fill:url(#SVGID_4_);}
</style>
<g>
	<path class="st0" d="M364.2,329.1v0.2c0,0.2-0.1,0.3-0.3,0.3c-0.1,0-0.2-0.1-0.3-0.2h-1.8c0,0,0,0,0,0c0,0.1-0.2,0.2-0.3,0.2h0   l0,1.4h0c0.1,0,0.2,0.1,0.3,0.2h0c0.1,0.1,0.2,0.2,0.2,0.3c0,0,0,0,0,0c0.1,0.1,0.2,0.1,0.2,0.2c0,0.1-0.1,0.2-0.2,0.2c0,0,0,0,0,0   c0,0.1-0.1,0.2-0.2,0.3h0c0,0.1-0.1,0.2-0.3,0.2h0l0.2,25l0.3,0.4c0,0.1,0.1,0.2,0.1,0.3c0,0,0,0,0,0c0,0,0,0.1,0,0.1   c0,0.1,0,0.2-0.1,0.3l0,0l-0.2,0.4v0.7c0.3,0.3,0.5,0.8,0.5,1.6v9.3h-2.4v-9.3c0-0.8,0.2-1.3,0.5-1.6v-0.7l-0.2-0.4l0,0   c-0.1-0.1-0.1-0.2-0.1-0.3c0-0.1,0-0.1,0-0.1c0,0,0,0,0,0c0-0.1,0-0.2,0.1-0.3l0.3-0.4l0.2-25h0c-0.1,0-0.2-0.1-0.3-0.2   c0,0,0,0,0,0c-0.1,0-0.2-0.1-0.2-0.3c0,0,0,0,0,0c-0.1,0-0.2-0.1-0.2-0.2c0-0.1,0.1-0.2,0.2-0.2c0,0,0,0,0,0c0-0.1,0.1-0.2,0.2-0.3   l0,0c0-0.1,0.1-0.2,0.3-0.2h0l0-1.4h0c-0.1,0-0.2-0.1-0.3-0.2c0,0,0,0,0,0h-1.7c0,0.1-0.2,0.2-0.3,0.2c-0.2,0-0.3-0.1-0.3-0.3v-0.2   c0-0.2,0.1-0.3,0.3-0.3c0.1,0,0.2,0.1,0.3,0.2h1.7c0,0,0,0,0,0c0-0.1,0.1-0.2,0.3-0.2h0v-0.1c-0.3-0.2-0.6-0.5-0.6-0.9   c0-0.6,0.5-1,1-1s1,0.5,1,1c0,0.4-0.2,0.8-0.6,0.9v0.1h0c0.1,0,0.2,0.1,0.3,0.2c0,0,0,0,0,0h1.8c0-0.1,0.2-0.2,0.3-0.2   C364.1,328.7,364.2,328.9,364.2,329.1z"/>
	<path class="st0" d="M361.3,359.6c-0.2,0.1-0.4,0.1-0.5,0c0.1,0,0.2,0,0.3,0C361.1,359.5,361.2,359.6,361.3,359.6z"/>
	<path class="st1" d="M361.7,341.2l-1.1,1.9c0,0.1-0.1,0.1-0.2,0v0c-0.1,0-0.1-0.1,0-0.2l1.1-1.9c0-0.1,0.1-0.1,0.2,0l0,0   C361.7,341.1,361.8,341.2,361.7,341.2z"/>
	<path class="st1" d="M361.7,338.4l-1.1,1.9c0,0.1-0.1,0.1-0.2,0l0,0c-0.1,0-0.1-0.1,0-0.2l1.1-1.9c0-0.1,0.1-0.1,0.2,0l0,0   C361.7,338.2,361.8,338.3,361.7,338.4z"/>
	<path class="st1" d="M361.7,335.6l-1.1,1.9c0,0.1-0.1,0.1-0.2,0l0,0c-0.1,0-0.1-0.1,0-0.2l1.1-1.9c0-0.1,0.1-0.1,0.2,0l0,0   C361.7,335.4,361.8,335.5,361.7,335.6z"/>
	<path class="st1" d="M361.7,344l-1.1,1.9c0,0.1-0.1,0.1-0.2,0l0,0c-0.1,0-0.1-0.1,0-0.2l1.1-1.9c0-0.1,0.1-0.1,0.2,0l0,0   C361.7,343.9,361.8,344,361.7,344z"/>
	<path class="st1" d="M361.7,346.9l-1.1,1.9c0,0.1-0.1,0.1-0.2,0l0,0c-0.1,0-0.1-0.1,0-0.2l1.1-1.9c0-0.1,0.1-0.1,0.2,0l0,0   C361.7,346.7,361.8,346.8,361.7,346.9z"/>
	<path class="st1" d="M361.7,349.7l-1.1,1.9c0,0.1-0.1,0.1-0.2,0l0,0c-0.1,0-0.1-0.1,0-0.2l1.1-1.9c0-0.1,0.1-0.1,0.2,0l0,0   C361.7,349.6,361.8,349.6,361.7,349.7z"/>
	<path class="st1" d="M361.7,352.5l-1.1,1.9c0,0.1-0.1,0.1-0.2,0l0,0c-0.1,0-0.1-0.1,0-0.2l1.1-1.9c0-0.1,0.1-0.1,0.2,0l0,0   C361.7,352.4,361.8,352.5,361.7,352.5z"/>
	<g>
		<path class="st0" d="M362.7,319.3L362.7,319.3C362.7,319.3,362.7,319.3,362.7,319.3c-0.1,0-0.1,0-0.1,0    C362.6,319.2,362.6,319.2,362.7,319.3C362.7,319.2,362.7,319.2,362.7,319.3z"/>
	</g>
	<polygon class="st2" points="358.1,320.2 359.2,326.8 362.9,326.8 364,320.2  "/>
	<ellipse class="st3" cx="361.1" cy="325.8" rx="0.5" ry="1.1"/>
	<path class="st0" d="M364.2,320L364.2,320c0-0.1,0-0.1,0-0.2c0.1-0.3,0.1-0.4,0-0.5c0,0-0.1-0.1-0.1-0.1c-0.1,0-0.4,0.2-0.8,0.2   c-0.3,0-0.5-0.2-0.7-0.2c-0.3,0-0.3,0.2-0.7,0.2c-0.2,0-0.5-0.1-0.6-0.1c0.2-0.1,0.2-0.3,0.2-0.5c0-0.3-0.3-0.6-0.6-0.6   c-0.3,0-0.6,0.3-0.6,0.6c0,0.2,0.1,0.3,0.2,0.5c-0.2,0-0.4,0.1-0.6,0.1c-0.3,0-0.5-0.2-0.6-0.2c0,0-0.1,0-0.2,0   c0,0-0.2,0.1-0.5,0.1h0c-0.4,0-0.6-0.1-0.8-0.2c0,0-0.1,0-0.1,0c-0.1,0-0.1,0.3,0,0.6c0,0.1,0,0.1,0,0.1c0,0,0,0-0.1,0.1   c0,0.1-0.1,0.1-0.1,0.2l1.1,6.6c0,0.1,0.1,0.2,0.3,0.2h3.7c0.1,0,0.2-0.1,0.3-0.2l1.1-6.6C364.3,320.2,364.3,320.1,364.2,320z    M361.2,319.5C361.2,319.5,361.2,319.5,361.2,319.5c0.1,0,0.4,0.1,0.8,0.1h0c0.1,0,0.2,0,0.3-0.1c0,0,0,0.1,0,0.1   c0,0.1,0,0.2,0,0.2h-1.1C361.2,319.8,361.2,319.7,361.2,319.5z M360,319.6L360,319.6c0.3,0,0.6-0.1,0.8-0.1v0c0,0.2,0,0.3,0.1,0.4   h-1c0-0.1,0-0.2-0.1-0.2c0,0,0-0.1,0-0.1C359.8,319.6,359.9,319.6,360,319.6z M358.3,319.7c0-0.1,0-0.1-0.1-0.2   c0.2,0,0.4,0.1,0.6,0.1h0c0.2,0,0.4-0.1,0.5-0.1c0,0.1,0,0.2,0.1,0.3c0,0,0,0.1,0,0.1h-1.1C358.3,319.9,358.3,319.8,358.3,319.7z    M362.7,326.5h-3.2l-1-6.1h5.3L362.7,326.5z M363.8,319.7c0,0.1,0,0.2,0,0.2h-1.1c0,0,0-0.1,0-0.1c0-0.1,0.1-0.2,0.1-0.3   c0.1,0.1,0.3,0.1,0.5,0.1h0c0.2,0,0.4-0.1,0.6-0.1C363.9,319.6,363.9,319.6,363.8,319.7z"/>
</g>
<g>
	<path class="st0" d="M576,330.8v0.2c0,0.2-0.1,0.3-0.3,0.3c-0.1,0-0.2-0.1-0.3-0.2h-1.8c0,0,0,0,0,0c0,0.1-0.2,0.2-0.3,0.2h0l0,1.4   h0c0.1,0,0.2,0.1,0.3,0.2h0c0.1,0.1,0.2,0.2,0.2,0.3c0,0,0,0,0,0c0.1,0.1,0.2,0.1,0.2,0.2c0,0.1-0.1,0.2-0.2,0.2c0,0,0,0,0,0   c0,0.1-0.1,0.2-0.2,0.3h0c0,0.1-0.1,0.2-0.3,0.2h0l0.2,25l0.3,0.4c0,0.1,0.1,0.2,0.1,0.3c0,0,0,0,0,0c0,0,0,0.1,0,0.1   c0,0.1,0,0.2-0.1,0.3l0,0l-0.2,0.4v0.7c0.3,0.3,0.5,0.8,0.5,1.6v9.3h-2.4v-9.3c0-0.8,0.2-1.3,0.5-1.6v-0.7l-0.2-0.4l0,0   c-0.1-0.1-0.1-0.2-0.1-0.3c0-0.1,0-0.1,0-0.1c0,0,0,0,0,0c0-0.1,0-0.2,0.1-0.3l0.3-0.4l0.2-25h0c-0.1,0-0.2-0.1-0.3-0.2   c0,0,0,0,0,0c-0.1,0-0.2-0.1-0.2-0.3c0,0,0,0,0,0c-0.1,0-0.2-0.1-0.2-0.2c0-0.1,0.1-0.2,0.2-0.2c0,0,0,0,0,0c0-0.1,0.1-0.2,0.2-0.3   l0,0c0-0.1,0.1-0.2,0.3-0.2h0l0-1.4h0c-0.1,0-0.2-0.1-0.3-0.2c0,0,0,0,0,0h-1.7c0,0.1-0.2,0.2-0.3,0.2c-0.2,0-0.3-0.1-0.3-0.3v-0.2   c0-0.2,0.1-0.3,0.3-0.3c0.1,0,0.2,0.1,0.3,0.2h1.7c0,0,0,0,0,0c0-0.1,0.1-0.2,0.3-0.2h0v-0.1c-0.3-0.2-0.6-0.5-0.6-0.9   c0-0.6,0.5-1,1-1s1,0.5,1,1c0,0.4-0.2,0.8-0.6,0.9v0.1h0c0.1,0,0.2,0.1,0.3,0.2c0,0,0,0,0,0h1.8c0-0.1,0.2-0.2,0.3-0.2   C575.8,330.5,576,330.6,576,330.8z"/>
	<path class="st0" d="M573.1,361.3c-0.2,0.1-0.4,0.1-0.5,0c0.1,0,0.2,0,0.3,0C572.9,361.3,573,361.3,573.1,361.3z"/>
	<path class="st1" d="M573.5,343l-1.1,1.9c0,0.1-0.1,0.1-0.2,0l0,0c-0.1,0-0.1-0.1,0-0.2l1.1-1.9c0-0.1,0.1-0.1,0.2,0l0,0   C573.5,342.8,573.5,342.9,573.5,343z"/>
	<path class="st1" d="M573.5,340.1l-1.1,1.9c0,0.1-0.1,0.1-0.2,0l0,0c-0.1,0-0.1-0.1,0-0.2l1.1-1.9c0-0.1,0.1-0.1,0.2,0l0,0   C573.5,340,573.5,340.1,573.5,340.1z"/>
	<path class="st1" d="M573.5,337.3l-1.1,1.9c0,0.1-0.1,0.1-0.2,0l0,0c-0.1,0-0.1-0.1,0-0.2l1.1-1.9c0-0.1,0.1-0.1,0.2,0l0,0   C573.5,337.2,573.5,337.3,573.5,337.3z"/>
	<path class="st1" d="M573.5,345.8l-1.1,1.9c0,0.1-0.1,0.1-0.2,0l0,0c-0.1,0-0.1-0.1,0-0.2l1.1-1.9c0-0.1,0.1-0.1,0.2,0l0,0   C573.5,345.6,573.5,345.7,573.5,345.8z"/>
	<path class="st1" d="M573.5,348.6l-1.1,1.9c0,0.1-0.1,0.1-0.2,0l0,0c-0.1,0-0.1-0.1,0-0.2l1.1-1.9c0-0.1,0.1-0.1,0.2,0l0,0   C573.5,348.5,573.5,348.6,573.5,348.6z"/>
	<path class="st1" d="M573.5,351.4l-1.1,1.9c0,0.1-0.1,0.1-0.2,0l0,0c-0.1,0-0.1-0.1,0-0.2l1.1-1.9c0-0.1,0.1-0.1,0.2,0l0,0   C573.5,351.3,573.5,351.4,573.5,351.4z"/>
	<path class="st1" d="M573.5,354.3l-1.1,1.9c0,0.1-0.1,0.1-0.2,0l0,0c-0.1,0-0.1-0.1,0-0.2l1.1-1.9c0-0.1,0.1-0.1,0.2,0l0,0   C573.5,354.1,573.5,354.2,573.5,354.3z"/>
	<g>
		<path class="st0" d="M574.5,321L574.5,321C574.5,321,574.5,321,574.5,321c-0.1,0-0.1,0-0.1,0C574.4,321,574.4,321,574.5,321    C574.5,321,574.5,321,574.5,321z"/>
	</g>
	<polygon class="st2" points="569.9,322 571,328.6 574.7,328.6 575.8,322  "/>
	<ellipse class="st3" cx="572.8" cy="327.5" rx="0.5" ry="1.1"/>
	<path class="st0" d="M576,321.8L576,321.8c0-0.1,0-0.1,0-0.2c0.1-0.3,0.1-0.4,0-0.5c0,0-0.1-0.1-0.1-0.1c-0.1,0-0.4,0.2-0.8,0.2   c-0.3,0-0.5-0.2-0.7-0.2c-0.3,0-0.3,0.2-0.7,0.2c-0.2,0-0.5-0.1-0.6-0.1c0.2-0.1,0.2-0.3,0.2-0.5c0-0.3-0.3-0.6-0.6-0.6   c-0.3,0-0.6,0.3-0.6,0.6c0,0.2,0.1,0.3,0.2,0.5c-0.2,0-0.4,0.1-0.6,0.1c-0.3,0-0.5-0.2-0.6-0.2c0,0-0.1,0-0.2,0   c0,0-0.2,0.1-0.5,0.1h0c-0.4,0-0.6-0.1-0.8-0.2c0,0-0.1,0-0.1,0c-0.1,0-0.1,0.3,0,0.6c0,0.1,0,0.1,0,0.1c0,0,0,0-0.1,0.1   c0,0.1-0.1,0.1-0.1,0.2l1.1,6.6c0,0.1,0.1,0.2,0.3,0.2h3.7c0.1,0,0.2-0.1,0.3-0.2l1.1-6.6C576.1,321.9,576.1,321.8,576,321.8z    M573,321.3C573,321.2,573,321.2,573,321.3c0.1,0,0.4,0.1,0.8,0.1h0c0.1,0,0.2,0,0.3-0.1c0,0,0,0.1,0,0.1c0,0.1,0,0.2,0,0.2h-1.1   C573,321.6,573,321.4,573,321.3z M571.8,321.4L571.8,321.4c0.3,0,0.6-0.1,0.8-0.1v0c0,0.2,0,0.3,0.1,0.4h-1c0-0.1,0-0.2-0.1-0.2   c0,0,0-0.1,0-0.1C571.6,321.4,571.7,321.4,571.8,321.4z M570.1,321.4c0-0.1,0-0.1-0.1-0.2c0.2,0,0.4,0.1,0.6,0.1h0   c0.2,0,0.4-0.1,0.5-0.1c0,0.1,0,0.2,0.1,0.3c0,0,0,0.1,0,0.1h-1.1C570.1,321.6,570.1,321.5,570.1,321.4z M574.4,328.3h-3.2l-1-6.1   h5.3L574.4,328.3z M575.6,321.4c0,0.1,0,0.2,0,0.2h-1.1c0,0,0-0.1,0-0.1c0-0.1,0.1-0.2,0.1-0.3c0.1,0.1,0.3,0.1,0.5,0.1h0   c0.2,0,0.4-0.1,0.6-0.1C575.7,321.3,575.6,321.4,575.6,321.4z"/>
</g>
<polygon class="st4" points="160.9,395.4 65.6,395.4 70.7,347.6 155.8,347.6 "/>
<path class="st5" d="M158.6,347.6H67.9c-1.2,0-2.1-1.1-1.9-2.2c0.8-4.5,2.5-14.6,2.8-18.6c1.5-17.2,5.3-77.9,5.3-77.9h78.3  c0,0,3.8,60.7,5.3,77.9c0.4,4,2,14.1,2.8,18.6C160.7,346.5,159.8,347.6,158.6,347.6z"/>
<path class="st6" d="M158.1,249.7H68.4c-1.4,0-2.3-1.4-1.7-2.6c3.9-8.7,18.3-35.7,46.5-35.7s42.6,27.1,46.5,35.7  C160.3,248.3,159.4,249.7,158.1,249.7z"/>
<rect x="84.8" y="307" class="st7" width="11.5" height="15.3"/>
<rect x="126.8" y="266.9" class="st8" width="11.5" height="15.3"/>
<path class="st9" d="M120,395.4h-15.2v-21.3c0-1.4,1.2-2.6,2.6-2.6h10c1.4,0,2.6,1.2,2.6,2.6V395.4z"/>
<circle class="st10" cx="107.2" cy="384.3" r="0.9"/>
<g>
	<g>
		<line class="st11" x1="19.4" y1="321.4" x2="7.1" y2="308.2"/>
		<line class="st11" x1="23.8" y1="317.3" x2="11.5" y2="304.1"/>
		<line class="st11" x1="28.2" y1="313.1" x2="16" y2="300"/>
		<line class="st11" x1="32.7" y1="309" x2="20.4" y2="295.9"/>
		<line class="st11" x1="37.1" y1="304.9" x2="24.8" y2="291.8"/>
		<line class="st11" x1="41.5" y1="300.8" x2="29.2" y2="287.6"/>
		<line class="st11" x1="45.9" y1="296.7" x2="33.6" y2="283.5"/>
		<line class="st11" x1="50.3" y1="292.5" x2="38" y2="279.4"/>
		<line class="st11" x1="54.7" y1="288.4" x2="42.4" y2="275.3"/>
		<line class="st11" x1="59.1" y1="284.3" x2="46.8" y2="271.2"/>
		<line class="st11" x1="63.5" y1="280.2" x2="51.2" y2="267"/>
		<line class="st11" x1="67.9" y1="276" x2="55.6" y2="262.9"/>
		<line class="st11" x1="72.3" y1="271.9" x2="60" y2="258.8"/>
		<line class="st11" x1="76.7" y1="267.8" x2="64.4" y2="254.7"/>
		<line class="st11" x1="81.1" y1="263.7" x2="68.8" y2="250.5"/>
		<line class="st11" x1="98.8" y1="247.2" x2="86.5" y2="234.1"/>
		<line class="st11" x1="103.2" y1="243.1" x2="90.9" y2="229.9"/>
		<line class="st11" x1="107.6" y1="239" x2="100" y2="230.9"/>
		<line class="st11" x1="112" y1="234.8" x2="104.4" y2="226.8"/>
		<line class="st12" x1="115.9" y1="230.2" x2="108.8" y2="222.6"/>
		<line class="st11" x1="85.5" y1="259.6" x2="73.2" y2="246.4"/>
		<line class="st11" x1="89.9" y1="255.4" x2="77.6" y2="242.3"/>
		<line class="st11" x1="94.3" y1="251.3" x2="82.1" y2="238.2"/>
		<line class="st12" x1="7.1" y1="308.3" x2="90.9" y2="229.9"/>
		<line class="st11" x1="11.9" y1="313.3" x2="108.8" y2="222.6"/>
	</g>
	<g>
		<rect x="0.9" y="272" transform="matrix(0.7303 -0.6831 0.6831 0.7303 -170.2487 120.8799)" width="134.1" height="8.2"/>
	</g>
</g>
<g>
	<g>
		<line class="st11" x1="207.5" y1="333.2" x2="194.4" y2="345.4"/>
		<line class="st11" x1="203.4" y1="328.8" x2="190.3" y2="341"/>
		<line class="st11" x1="199.3" y1="324.3" x2="186.2" y2="336.6"/>
		<line class="st11" x1="195.2" y1="319.9" x2="182" y2="332.2"/>
		<line class="st11" x1="191.1" y1="315.5" x2="177.9" y2="327.8"/>
		<line class="st11" x1="186.9" y1="311.1" x2="173.8" y2="323.4"/>
		<line class="st11" x1="182.8" y1="306.7" x2="169.7" y2="319"/>
		<line class="st11" x1="178.7" y1="302.3" x2="165.5" y2="314.6"/>
		<line class="st11" x1="174.6" y1="297.9" x2="161.4" y2="310.2"/>
		<line class="st11" x1="170.4" y1="293.5" x2="157.3" y2="305.8"/>
		<line class="st11" x1="166.3" y1="289.1" x2="153.2" y2="301.4"/>
		<line class="st11" x1="162.2" y1="284.7" x2="149.1" y2="297"/>
		<line class="st11" x1="158.1" y1="280.3" x2="144.9" y2="292.6"/>
		<line class="st11" x1="154" y1="275.9" x2="140.8" y2="288.2"/>
		<line class="st11" x1="149.8" y1="271.5" x2="136.7" y2="283.8"/>
		<line class="st11" x1="133.3" y1="253.8" x2="120.2" y2="266.1"/>
		<line class="st11" x1="129.2" y1="249.4" x2="116.1" y2="261.7"/>
		<line class="st11" x1="125.1" y1="245" x2="117" y2="252.6"/>
		<line class="st11" x1="121" y1="240.6" x2="112.9" y2="248.2"/>
		<line class="st12" x1="116.4" y1="236.7" x2="108.8" y2="243.8"/>
		<line class="st11" x1="145.7" y1="267.1" x2="132.6" y2="279.4"/>
		<line class="st11" x1="141.6" y1="262.7" x2="128.5" y2="274.9"/>
		<line class="st11" x1="137.5" y1="258.2" x2="124.3" y2="270.5"/>
		<line class="st12" x1="194.4" y1="345.5" x2="116.1" y2="261.7"/>
		<line class="st11" x1="199.5" y1="340.7" x2="108.8" y2="243.8"/>
	</g>
	<g>
		<rect x="158.1" y="217.6" transform="matrix(0.7303 -0.6831 0.6831 0.7303 -150.7209 187.5507)" width="8.2" height="134.1"/>
	</g>
</g>
<g>
	<g>
		<line class="st11" x1="214.4" y1="139.2" x2="226.7" y2="152.3"/>
		<line class="st11" x1="210" y1="143.3" x2="222.3" y2="156.5"/>
		<line class="st11" x1="205.6" y1="147.4" x2="217.9" y2="160.6"/>
		<line class="st11" x1="201.2" y1="151.6" x2="213.5" y2="164.7"/>
		<line class="st11" x1="196.8" y1="155.7" x2="209.1" y2="168.8"/>
		<line class="st11" x1="192.4" y1="159.8" x2="204.6" y2="172.9"/>
		<line class="st11" x1="188" y1="163.9" x2="200.2" y2="177.1"/>
		<line class="st11" x1="183.5" y1="168" x2="195.8" y2="181.2"/>
		<line class="st11" x1="179.1" y1="172.2" x2="191.4" y2="185.3"/>
		<line class="st11" x1="174.7" y1="176.3" x2="187" y2="189.4"/>
		<line class="st11" x1="170.3" y1="180.4" x2="182.6" y2="193.6"/>
		<line class="st11" x1="165.9" y1="184.5" x2="178.2" y2="197.7"/>
		<line class="st11" x1="161.5" y1="188.7" x2="173.8" y2="201.8"/>
		<line class="st11" x1="157.1" y1="192.8" x2="169.4" y2="205.9"/>
		<line class="st11" x1="152.7" y1="196.9" x2="165" y2="210"/>
		<line class="st11" x1="135.1" y1="213.4" x2="147.4" y2="226.5"/>
		<line class="st11" x1="130.7" y1="217.5" x2="143" y2="230.7"/>
		<line class="st11" x1="126.3" y1="221.6" x2="133.8" y2="229.7"/>
		<line class="st11" x1="121.9" y1="225.8" x2="129.4" y2="233.8"/>
		<line class="st12" x1="117.9" y1="230.4" x2="125" y2="237.9"/>
		<line class="st11" x1="148.3" y1="201" x2="160.6" y2="214.2"/>
		<line class="st11" x1="143.9" y1="205.1" x2="156.2" y2="218.3"/>
		<line class="st11" x1="139.5" y1="209.3" x2="151.8" y2="222.4"/>
		<line class="st12" x1="226.7" y1="152.3" x2="143" y2="230.7"/>
		<line class="st11" x1="222" y1="147.3" x2="125" y2="237.9"/>
	</g>
	<g>
		<rect x="98.9" y="180.5" transform="matrix(0.7303 -0.6831 0.6831 0.7303 -81.3162 163.155)" width="134.1" height="8.2"/>
	</g>
</g>
<g>
	<g>
		<line class="st11" x1="25.3" y1="138.3" x2="38.4" y2="126"/>
		<line class="st11" x1="29.4" y1="142.7" x2="42.5" y2="130.4"/>
		<line class="st11" x1="33.5" y1="147.1" x2="46.6" y2="134.8"/>
		<line class="st11" x1="37.6" y1="151.5" x2="50.8" y2="139.2"/>
		<line class="st11" x1="41.7" y1="155.9" x2="54.9" y2="143.6"/>
		<line class="st11" x1="45.9" y1="160.3" x2="59" y2="148"/>
		<line class="st11" x1="50" y1="164.7" x2="63.1" y2="152.4"/>
		<line class="st11" x1="54.1" y1="169.1" x2="67.3" y2="156.8"/>
		<line class="st11" x1="58.2" y1="173.5" x2="71.4" y2="161.2"/>
		<line class="st11" x1="62.4" y1="177.9" x2="75.5" y2="165.7"/>
		<line class="st11" x1="66.5" y1="182.3" x2="79.6" y2="170.1"/>
		<line class="st11" x1="70.6" y1="186.8" x2="83.7" y2="174.5"/>
		<line class="st11" x1="74.7" y1="191.2" x2="87.9" y2="178.9"/>
		<line class="st11" x1="78.8" y1="195.6" x2="92" y2="183.3"/>
		<line class="st11" x1="83" y1="200" x2="96.1" y2="187.7"/>
		<line class="st11" x1="99.5" y1="217.6" x2="112.6" y2="205.3"/>
		<line class="st11" x1="103.6" y1="222" x2="116.7" y2="209.7"/>
		<line class="st11" x1="107.7" y1="226.4" x2="115.8" y2="218.9"/>
		<line class="st11" x1="111.8" y1="230.8" x2="119.9" y2="223.3"/>
		<line class="st12" x1="116.4" y1="234.8" x2="124" y2="227.7"/>
		<line class="st11" x1="87.1" y1="204.4" x2="100.2" y2="192.1"/>
		<line class="st11" x1="91.2" y1="208.8" x2="104.4" y2="196.5"/>
		<line class="st11" x1="95.3" y1="213.2" x2="108.5" y2="200.9"/>
		<line class="st12" x1="38.4" y1="126" x2="116.7" y2="209.7"/>
		<line class="st11" x1="33.3" y1="130.7" x2="124" y2="227.7"/>
	</g>
	<g>
		<rect x="66.5" y="119.7" transform="matrix(0.7303 -0.6831 0.6831 0.7303 -108.5391 98.5864)" width="8.2" height="134.1"/>
	</g>
</g>
<circle class="st13" cx="114" cy="233.1" r="7"/>
<g>
	<circle class="st14" cx="567.8" cy="358.2" r="8.8"/>
	<circle class="st14" cx="539.8" cy="347.5" r="8.8"/>
	<circle cx="567.8" cy="358.2" r="1.7"/>
	<circle cx="539.8" cy="347.5" r="1.7"/>
	<path class="st15" d="M558.5,352.9"/>
	<path class="st14" d="M567.8,358.2c0,0-0.6-6.6-5.6-12.3c-5.4-6.2-12.7-8.9-12.7-8.9"/>
	<path class="st14" d="M549.5,336.9c0,0,1.9,3.6,2.9,6.6c1.7,4.8,0.9,7,0.9,7"/>
	<path class="st16" d="M550.6,351.7c-0.4,1.1,0.1,2.3,1.2,2.8c1.1,0.4,2.3-0.1,2.8-1.2c0.1-0.2,0.1-0.5,0.1-0.7c0-0.9-0.5-1.7-1.4-2   s-1.8-0.1-2.4,0.6C550.9,351.2,550.7,351.4,550.6,351.7z"/>
	<line class="st14" x1="553.4" y1="350.5" x2="563.7" y2="340.2"/>
	<path class="st15" d="M551.9,354.4"/>
	<g>
		<path class="st17" d="M551.9,354.4l15.3,5.3c0.9,0.3,1.8-0.1,2.1-1s-0.1-1.8-1-2.1l-14.9-6.2c-0.9-0.3-1.8-0.1-2.4,0.6    c-0.2,0.2-0.3,0.4-0.4,0.6C550.2,352.8,550.8,354,551.9,354.4z"/>
	</g>
	<line class="st16" x1="552.6" y1="352.4" x2="549.6" y2="354.5"/>
	<path d="M548.9,354.7l0.9,0.4c0.3,0.1,0.6,0,0.7-0.3l0,0c0.1-0.3,0-0.6-0.3-0.7l-0.9-0.4c-0.3-0.1-0.6,0-0.7,0.3l0,0   C548.5,354.3,548.6,354.6,548.9,354.7z"/>
	<polyline class="st18" points="554.6,332.1 550.4,330.5 551.4,334.7 539.8,347.5  "/>
	<path d="M553.1,332.9l2.2,0.8c0.7,0.3,1.4-0.1,1.7-0.7l0,0c0.3-0.7-0.1-1.4-0.7-1.7l-2.2-0.8c-0.7-0.3-1.4,0.1-1.7,0.7l0,0   C552.1,331.9,552.4,332.7,553.1,332.9z"/>
	<path d="M560.4,339.4c0.7,0.8,1,1.1,2.8,1.8c1.4,0.6,2.2,1.7,3.1,1.5c0.7-0.2,1.4-1.7,1-2.4c-0.5-0.7-2-0.5-3.3-0.8   c-1.3-0.4-2.7-1.5-3.5-1.1C560.2,338.4,560.1,339,560.4,339.4z"/>
	<path class="st14" d="M550.3,347.2c-0.1-4.1-2.7-7.9-6.8-9.5"/>
	<path class="st14" d="M578.2,357.1c-0.4-3.8-2.9-7.3-6.7-8.7c-4.7-1.8-10,0.1-12.6,4.2"/>
	<path class="st19" d="M549.9,350.6L549.9,350.6l1.1,0.5c0.6-0.7,1.5-0.9,2.4-0.6s1.4,1.2,1.4,2l15.5,5.9l0,0c0.4-0.9-0.1-2-1.1-2.3   l-17-6.5C551.3,349.1,550.3,349.6,549.9,350.6z"/>
</g>
<g>
	<circle class="st14" cx="401.5" cy="345.1" r="8.8"/>
	<circle class="st14" cx="430.8" cy="338.5" r="8.8"/>
	<circle cx="401.5" cy="345.1" r="1.7"/>
	<circle cx="430.8" cy="338.5" r="1.7"/>
	<path class="st15" d="M411.5,341.2"/>
	<path class="st14" d="M401.5,345.1c0,0,1.5-6.4,7.3-11.4c6.2-5.3,13.8-7,13.8-7"/>
	<path class="st14" d="M422.6,326.7c0,0-2.4,3.3-3.8,6.1c-2.4,4.5-1.9,6.8-1.9,6.8"/>
	<path class="st16" d="M419.4,341.1c0.3,1.2-0.5,2.3-1.6,2.5c-1.1,0.3-2.3-0.5-2.5-1.6c-0.1-0.2-0.1-0.5,0-0.7   c0.1-0.9,0.8-1.6,1.7-1.8c0.9-0.2,1.8,0.2,2.3,0.9C419.3,340.6,419.4,340.8,419.4,341.1z"/>
	<line class="st14" x1="416.9" y1="339.5" x2="408.1" y2="327.9"/>
	<path class="st15" d="M417.8,343.6"/>
	<g>
		<path class="st17" d="M417.8,343.6l-15.9,3.1c-0.9,0.2-1.8-0.4-2-1.3s0.4-1.8,1.3-2l15.7-4c0.9-0.2,1.8,0.2,2.3,0.9    c0.1,0.2,0.2,0.4,0.3,0.7C419.7,342.2,418.9,343.4,417.8,343.6z"/>
	</g>
	<line class="st16" x1="417.3" y1="341.5" x2="420.1" y2="344.1"/>
	<path d="M420.7,344.4l-1,0.2c-0.3,0.1-0.6-0.1-0.7-0.4l0,0c-0.1-0.3,0.1-0.6,0.4-0.7l1-0.2c0.3-0.1,0.6,0.1,0.7,0.4l0,0   C421.2,344,421,344.3,420.7,344.4z"/>
	<polyline class="st18" points="418.3,321.2 422.7,320.2 421.1,324.2 430.8,338.5  "/>
	<path d="M419.7,322.2l-2.3,0.5c-0.7,0.2-1.4-0.3-1.5-1l0,0c-0.2-0.7,0.3-1.4,1-1.5l2.3-0.5c0.7-0.2,1.4,0.3,1.5,1l0,0   C420.8,321.3,420.4,322,419.7,322.2z"/>
	<path d="M411.5,327.5c-0.8,0.7-1.1,0.9-3,1.3c-1.5,0.3-2.4,1.4-3.2,1c-0.7-0.3-1.2-1.9-0.6-2.5c0.6-0.7,2-0.2,3.4-0.4   c1.3-0.2,2.9-1.1,3.6-0.6C411.9,326.6,411.8,327.2,411.5,327.5z"/>
	<path class="st14" d="M420.4,336.7c0.7-4,3.8-7.5,8.1-8.4"/>
	<path class="st14" d="M391.3,342.5c0.9-3.7,3.9-6.8,7.9-7.7c5-1.1,9.9,1.5,11.9,6"/>
	<path class="st19" d="M420.3,340.1L420.3,340.1l-1.2,0.3c-0.5-0.7-1.4-1.1-2.3-0.9s-1.5,0.9-1.7,1.8l-16.1,3.6l0,0   c-0.2-1,0.4-1.9,1.4-2.2l17.7-4C419.1,338.5,420.1,339.1,420.3,340.1z"/>
</g>
<rect x="356.6" y="389.5" class="st20" width="219.7" height="6"/>
<title>tudelt-ewi</title>
<polygon class="st21" points="732.2,395.5 727.4,70.9 1005,70.9 996.2,395.5 "/>
<path class="st22" d="M1004.6,71.3l-8.8,323.8H732.6l-4.8-323.8L1004.6,71.3 M1005.4,70.5H727v0.8l4.8,323.8v0.8h264.7v-0.7  l8.8-323.8L1005.4,70.5L1005.4,70.5z"/>
<polygon class="st23" points="674.3,395.1 732.6,395.1 727.8,75.5 668.3,75.5 "/>
<path class="st24" d="M986.7,28.6"/>
<polygon class="st25" points="667.4,47.9 676.4,54.8 676.4,50.5 672.9,47.9 "/>
<rect x="676.4" y="52.4" class="st23" width="51.4" height="3.5"/>
<polyline class="st26" points="727.8,52.4 727.8,48.9 672.9,48.9 676.4,52.4 727.8,52.4 "/>
<polygon class="st27" points="686.6,74.5 686.6,47.8 687.7,47.8 689.9,74.5 "/>
<polygon class="st28" points="687.7,47.8 692.2,47.8 692.7,74.5 689.9,74.5 "/>
<polyline class="st23" points="727.8,36.4 727.8,48.9 667.4,48.9 667.4,36.4 727.8,36.4 "/>
<path class="st29" d="M994,51.1c-0.1,0-0.1,0-0.2,0c-0.1-0.1-0.2-0.2-0.2-0.3v-4c0-0.1,0.1-0.2,0.2-0.3l5.8-4c0.1,0,0.1-0.1,0.2-0.1  h6.5c0.2,0,0.3,0.1,0.4,0.3c0.1,0.2,0,0.3-0.2,0.4l-12.3,8C994.1,51.1,994.1,51.2,994,51.1z"/>
<path class="st22" d="M1006.3,42.7l-12.3,8v-4l5.8-4H1006.3 M1006.3,42h-6.5c-0.2,0-0.3,0.1-0.4,0.1l-5.8,4  c-0.2,0.1-0.3,0.4-0.3,0.6v4c0,0.3,0.2,0.5,0.4,0.7c0.1,0.1,0.2,0.1,0.4,0.1c0.1,0,0.3,0,0.4-0.1l12.3-8c0.4-0.2,0.5-0.7,0.2-1  C1006.8,42.1,1006.6,42,1006.3,42L1006.3,42z"/>
<rect x="727.4" y="46.4" class="st21" width="266.3" height="4.8"/>
<path class="st22" d="M993.4,46.8v4H727.8v-4H993.4 M994.1,46.1H727v5.5h267.1V46.1L994.1,46.1z"/>
<polygon class="st30" points="727.4,47.1 727.4,42.3 1001.2,42.3 993.4,47.1 "/>
<path class="st22" d="M999.8,42.7l-6.5,4H727.8v-4H999.8 M1002.5,42H727v5.5h266.5l0.2-0.1l6.5-4L1002.5,42L1002.5,42z"/>
<polygon class="st28" points="977,70.6 980.6,70.6 983.9,42.7 977,42.7 "/>
<polygon class="st27" points="980.6,70.6 984.4,70.6 986.1,42.7 983.9,42.7 "/>
<polygon class="st31" points="727.8,42.7 727.8,71.3 952.6,70.6 953.7,42.7 "/>
<polygon class="st21" points="727.4,43.1 727.4,30.2 1006.7,29.4 1006.7,43.1 "/>
<path class="st22" d="M1006.3,29.8v13H727.8V30.5L1006.3,29.8 M1007.1,29h-0.8l-278.5,0.8H727v13.7h280L1007.1,29L1007.1,29z"/>
<path class="st32" d="M867.2,64.2c2.3,0.2,4.4-1.6,4.5-3.9c0-0.2,0-0.5,0-0.7V45.8h6.2v14c-0.1,6.2-5,8.6-10.6,8.6  s-10.5-2.4-10.6-8.6v-14h6.2v13.7c-0.2,2.3,1.5,4.4,3.8,4.6C866.8,64.2,867,64.2,867.2,64.2"/>
<path class="st33" d="M907.9,58.8c0-2.4,1.5-4.6,3.9-4.6c2.8,0,3.9,1.9,3.9,4.6H907.9 M918.8,60.9v-1.4c0-4.3-2.4-7.3-6.8-7.3  c-4.9,0-7.2,3.8-7.2,8.3s2,8.1,6.9,8.1c3.7,0,6.4-1.8,6.9-5.3h-3.1c-0.3,2.3-1.5,3.1-3.7,3.1c-3,0-4-2.6-4-5.5H918.8z"/>
<rect x="922.4" y="45.8" class="st33" width="2.9" height="22.2"/>
<polyline class="st33" points="840.7,68 846.8,68 846.8,50.1 853.7,50.1 853.7,45.8 833.8,45.8 833.8,50.1 840.7,50.1 840.7,68 "/>
<path class="st33" d="M855.4,35c-1.5,0.5-3.1,0.1-3-1.9c0-3.1,7.2-5.7,8.2-8.3c0.2-0.7,0.3-1.2,0-1.2s0,0.3-0.6,0.8  c-3,3-7.9,3-11.8,4.7c-2.5,1.1-9.9,4.6-8.2,12.3c0.1,0.4,0.3,1.6,0.5,1.6s0.3-0.7,0.2-1.6c0-4.6,5.4-5.9,7.2-8.9  c0.2-0.4,0.6-0.9,0.7-0.6c0,0.2,0,0.4-0.1,0.6c-0.6,2.5-3.1,4-2.4,5.8c0.9,2.3,3.7,0.6,4.5-0.9c0.2-0.4,0.4-0.7,0.5-0.6  c0.1,0,0.1,0.5,0,0.9c-0.5,2.7-1.1,4.1-3,5.7c-0.6,0.5-1.6,0.6-1.5,1c0,0.1,0.5,0.1,0.8,0c5.2-0.3,9.5-6.4,10.6-10.4  c0.1-0.3,0.2-0.5,0-0.6s-0.4,0.1-0.6,0.4C856.9,34.2,856.2,34.7,855.4,35"/>
<path class="st33" d="M934.5,68V54.6h3.6v-2h-3.6v-2.5c0-1.8,0.9-2.1,2.5-2.1c0.5,0,1,0.1,1.5,0.1v-2.4c-0.7-0.2-1.4-0.3-2.1-0.3  c-2.8,0-4.8,1.4-4.8,4.3v2.9h-3v2h3V68H934.5"/>
<path class="st33" d="M939.7,52.6v2h2.6v9.8c0,2.1,0,4,4.4,4c0.7,0,1.3-0.1,2-0.2V66c-0.5,0.1-1,0.2-1.5,0.2c-1,0-1.9-0.5-1.9-1.6  v-10h3.6v-2h-3.6v-4.2l-2.9,0.9v3.3H939.7"/>
<path class="st33" d="M883.9,68h7.6c9.5,0,10.5-8,10.5-11.1s-1-11.1-10.5-11.1h-7.6V68 M887,48.5h4.5c5.1,0,7.3,3.9,7.3,8.5  s-2.1,8.5-7.3,8.5H887V48.5z"/>
<path class="st34" d="M226.7,396.7c0,0,6.6-1.3,11.7-1.2c4.9,0.1,10.6,1.3,10.6,1.3s-4.1-3.7-4.6-4.8c-2.5-6.1,1.3-25,1.3-25  l10.7-6.5l5.3-14h-2.6l-5.3,12.4l-10.7,4.7l2.4-10.7v-8.1h-2.1l-0.3,8.4l-5,10.4l-12.7-17.2l-1.9,2.2l11,14.9l-11.1,1l-9.6-9.4  l-1.3,1.6l9.4,11l12,1.1c0,0,1.6,20.3-0.3,22.7C231.6,393.9,226.7,396.7,226.7,396.7z"/>
<path class="st35" d="M197,354.8c0,7.6,7.3,12.8,15,12.9c5.2,0,6.6-4.3,9-8.5c2,1,4.2,2,6.5,1.6c5.2-1,7.3-2.3,12.2-6.7  c2.4,2.8,6,4.6,10,4.6c4.6,0,8.6-2.3,11-5.7c3.5,7.2,3.1,8.6,11.4,10.2c6.3,1.2,9-4,11.6-11.5c2.1-6-5.1-11.5-11.5-11.6  c-0.9,0-1.8,0.1-2.7,0.3c2.6-2.7,4.3-6.3,4.3-10.4c0-8.2-4.6-14.7-12.8-14.7c-1,0-4,0-5,0.2c0.9-1.8,1.3-3.8,1.4-5.9  c0-7.6-4.2-13.7-11.8-13.7c-5.2,0-11.8,2.7-14.1,7c-1-0.2-2-0.4-3-0.4c-7.5,0-13.6,4.7-13.6,12.3c0,2.2,0.4,5.6,1.3,7.4  c-1.1-0.4-2.3-0.6-3.6-0.6c-5.7,0-8.7,4.4-8.7,10.1c0,2.8-0.6,5.6,1.2,7.5C199.3,340.9,197,348.6,197,354.8z"/>
<path class="st36" d="M261.3,350.1c2.4-1.4,4.2-3.9,4.6-6.9c0.7-5.3-0.6-9.5-5.9-10.2c-0.8-0.1-3.8-0.8-4.6-0.7  c0.8-1.2,1.4-2.6,1.6-4.1c0.7-5.1-0.9-9.3-6-10.1c-3.4-0.5-8.5,0.4-10.5,2.8c-0.2,0-0.5-0.1-0.7-0.1c-7.9-1.1-16,2.7-17.1,10.6  c-0.1,0.7,0.6,3,0.6,3.7c-4.3,0.4-6.6,3.1-7.3,7.6c-0.5,3.3-0.5,6.9,1.8,9c-3.9-0.3-7.1,0.8-7.7,4.7c-0.6,4.1,2.3,7.9,6.4,8.5  c3.2,0.5,5.9,0.6,7.4-2.1c0.6,0.3,1.3,0.4,2.1,0.5c4.3,0.6,8.4-1.9,9.9-5.9c1.5,2.8,2.7,4.6,6.1,5.1c2.5,0.3,6.4,0.2,8.4-1.1  c0.9,3.4,4.9,5.2,8.6,5.8c5,0.7,9.6-2.8,10.3-7.8C270.1,354.6,265.9,351.1,261.3,350.1z M235.3,349.4c0,0.1,0,0.1-0.1,0.2  c0-0.1-0.1-0.1-0.1-0.2C235.2,349.3,235.2,349.3,235.3,349.4z"/>
<path class="st34" d="M172.6,396.7c0,0-7.5-1.5-13.3-1.4c-5.6,0.1-12,1.5-12,1.5s4.7-4.2,5.2-5.5c2.8-7-1.5-28.4-1.5-28.4l-12.2-7.4  l-6-15.9h3l6,14.1L154,359l-2.7-12.2v-9.2h2.4l0.3,9.5l5.7,11.9l14.5-19.5l2.2,2.5l-12.5,17l12.6,1.1l10.9-10.7l1.5,1.8l-10.7,12.5  l-13.7,1.2c0,0-1.8,23.1,0.4,25.8C167,393.5,172.6,396.7,172.6,396.7z"/>
<path class="st35" d="M206.4,349c0,8.7-8.3,14.6-17,14.6c-5.9,0-7.5-4.9-10.2-9.6c-2.2,1.1-4.8,2.3-7.4,1.8  c-5.9-1.1-8.3-2.6-13.9-7.6c-2.8,3.2-6.8,5.3-11.4,5.3c-5.2,0-9.8-2.6-12.5-6.5c-3.9,8.2-3.5,9.8-13,11.6c-7.1,1.4-10.2-4.5-13.2-13  c-2.3-6.9,5.8-13.1,13.1-13.2c1,0,2.1,0.1,3,0.3c-3-3-4.9-7.2-4.9-11.8c0-9.3,5.2-16.7,14.5-16.7c1.2,0,4.6,0,5.7,0.2  c-1-2-1.5-4.3-1.5-6.7c0-8.7,4.8-15.6,13.4-15.6c6,0,13.4,3.1,16.1,8c1.1-0.3,2.3-0.4,3.5-0.4c8.6,0,15.5,5.4,15.5,14  c0,2.5-0.5,6.3-1.5,8.4c1.3-0.5,2.6-0.7,4.1-0.7c6.5,0,9.9,5,9.9,11.5c0,3.2,0.7,6.4-1.3,8.5C203.8,333.2,206.4,342,206.4,349z"/>
<path class="st36" d="M127.2,349.6c0,5.7,4.6,10.4,10.4,10.5c4.3,0,9.1-1.3,10.7-5.1c2,1.7,6.4,2.5,9.2,2.6c3.9,0,5.6-1.7,7.7-4.7  c1,4.7,5.2,8.2,10.1,8.2c0.8,0,1.6-0.1,2.4-0.3c1.2,3.2,4.3,3.6,8,3.6c4.7,0,8.6-3.8,8.6-8.5c0-4.5-3.4-6.2-7.9-6.6  c2.9-1.9,3.4-6.1,3.4-9.8c0-5.1-2.1-8.6-6.9-9.7c0.1-0.7,1.3-3.3,1.3-4c0-9.1-8.5-14.7-17.5-14.7c-0.3,0-0.6,0-0.8,0  c-1.9-3.1-7.5-4.9-11.3-4.9c-5.9,0-8.4,4.5-8.4,10.3c0,1.7,0.4,3.4,1.1,4.8c-0.8-0.2-4.4,0-5.3,0c-6,0-8.3,4.5-8.3,10.6  c0,3.5,1.6,6.5,4.1,8.6C132.5,340.8,127.2,344.1,127.2,349.6z M167.5,343.9c-0.1,0.1-0.1,0.1-0.2,0.2c0-0.1,0-0.1,0-0.2  C167.4,343.9,167.4,343.9,167.5,343.9z"/>
<g>
	<path class="st37" d="M349.5,369c0,0,58.6-31,116.9-31s116.9,31,116.9,31v-1.2c0,0-58.6-32.1-116.9-32.1s-116.9,32.1-116.9,32.1   V369L349.5,369z"/>
	<path class="st37" d="M349.5,360.8c0,0,58.6-31,116.9-31s116.9,31,116.9,31v-1.2c0,0-58.6-32.1-116.9-32.1s-116.9,32.1-116.9,32.1   V360.8L349.5,360.8z"/>
	<g>
		<rect x="349.1" y="357.2" class="st37" width="1.6" height="18.2"/>
		<path class="st37" d="M351.1,357.1c0-0.8-0.5-1.5-1.2-1.5c-0.6,0-1.2,0.7-1.2,1.5s0.5,0.6,1.2,0.6S351.1,357.9,351.1,357.1z"/>
	</g>
	<rect x="582.5" y="357.4" class="st37" width="1.6" height="18.2"/>
	<path class="st37" d="M584.4,357.2c0-0.8-0.5-1.5-1.2-1.5c-0.6,0-1.2,0.7-1.2,1.5s0.5,0.6,1.2,0.6   C583.9,357.9,584.4,358.1,584.4,357.2z"/>
	<g>
		<rect x="465.8" y="325.9" class="st37" width="1.6" height="18.2"/>
		<path class="st37" d="M467.8,325.8c0-0.8-0.5-1.5-1.2-1.5c-0.6,0-1.2,0.7-1.2,1.5s0.5,0.6,1.2,0.6    C467.2,326.4,467.8,326.6,467.8,325.8z"/>
	</g>
	<g>
		<rect x="407.5" y="334.6" class="st37" width="1.6" height="18.2"/>
		<path class="st37" d="M409.4,334.5c0-0.8-0.5-1.5-1.2-1.5s-1.2,0.7-1.2,1.5s0.5,0.6,1.2,0.6S409.4,335.3,409.4,334.5z"/>
	</g>
	<g>
		<rect x="524.1" y="335.4" class="st37" width="1.6" height="18.2"/>
		<path class="st37" d="M526.1,335.3c0-0.8-0.5-1.5-1.2-1.5s-1.2,0.7-1.2,1.5s0.5,0.6,1.2,0.6S526.1,336.1,526.1,335.3z"/>
	</g>
	<g>
		<rect x="495" y="328.6" class="st37" width="1.6" height="18.2"/>
		<path class="st37" d="M496.9,328.5c0-0.8-0.5-1.5-1.2-1.5c-0.6,0-1.2,0.7-1.2,1.5s0.5,0.6,1.2,0.6S496.9,329.3,496.9,328.5z"/>
	</g>
	<g>
		<rect x="553.3" y="344.5" class="st37" width="1.6" height="18.2"/>
		<path class="st37" d="M555.3,344.4c0-0.8-0.5-1.5-1.2-1.5s-1.2,0.7-1.2,1.5s0.5,0.6,1.2,0.6S555.3,345.2,555.3,344.4z"/>
	</g>
	<g>
		<rect x="436.6" y="328.4" class="st37" width="1.6" height="18.2"/>
		<path class="st37" d="M438.6,328.3c0-0.8-0.5-1.5-1.2-1.5s-1.2,0.7-1.2,1.5s0.5,0.6,1.2,0.6S438.6,329.1,438.6,328.3z"/>
	</g>
	<g>
		<rect x="378.3" y="344.5" class="st37" width="1.6" height="18.2"/>
		<path class="st37" d="M380.3,344.4c0-0.8-0.5-1.5-1.2-1.5c-0.6,0-1.2,0.7-1.2,1.5s0.5,0.6,1.2,0.6    C379.7,345,380.3,345.2,380.3,344.4z"/>
	</g>
</g>
<path class="st38" d="M583.3,374.9v20.6h-14c0-12.8-10.4-23.2-23.2-23.2s-23.2,10.4-23.2,23.2H501c0-19.2-15.5-34.7-34.7-34.7  s-34.7,15.5-34.7,34.7h-21.9c0-12.8-10.4-23.2-23.2-23.2s-23.2,10.4-23.2,23.2h-14v-20.6c0,0,57.9-31,116.9-31  S583.3,374.9,583.3,374.9z"/>
<path class="st39" d="M466.4,352.4c-23.8,0-43.1,19.3-43.1,43.1h8.4c0-19.2,15.5-34.7,34.7-34.7s34.7,15.5,34.7,34.7h8.4  C509.5,371.7,490.2,352.4,466.4,352.4z"/>
<rect x="462.4" y="344.1" class="st40" width="8" height="8"/>
<path class="st39" d="M386.6,366.7c-15.9,0-28.8,12.9-28.8,28.8h5.6c0-12.8,10.4-23.2,23.2-23.2s23.2,10.4,23.2,23.2h5.7  C415.4,379.6,402.5,366.7,386.6,366.7z"/>
<path class="st39" d="M546.1,366.7c-15.9,0-28.8,12.9-28.8,28.8h5.7c0-12.8,10.4-23.2,23.2-23.2s23.2,10.4,23.2,23.2h5.6  C575,379.6,562,366.7,546.1,366.7z"/>
<g>
	<path class="st41" d="M464.1,348.5h-0.4v-1.1l-0.4,0.2l-0.2-0.3l0.7-0.4h0.3V348.5z"/>
	<path class="st41" d="M465.9,347.9c0,0.3-0.1,0.6-0.2,0.8c-0.1,0.2-0.4,0.3-0.6,0.3s-0.4-0.1-0.6-0.2l0.2-0.3   c0.1,0.1,0.3,0.1,0.4,0.1c0.2,0,0.3-0.1,0.4-0.2s0.1-0.2,0.1-0.4c0,0.1-0.1,0.1-0.2,0.2c-0.1,0-0.2,0.1-0.3,0.1   c-0.2,0-0.3-0.1-0.5-0.2c-0.1-0.1-0.2-0.3-0.2-0.5s0.1-0.4,0.2-0.5s0.3-0.2,0.5-0.2s0.4,0.1,0.6,0.3   C465.8,347.3,465.9,347.6,465.9,347.9z M465.4,347.6c0-0.1,0-0.2-0.1-0.3s-0.1-0.1-0.2-0.1s-0.2,0-0.2,0.1   c-0.1,0.1-0.1,0.2-0.1,0.3c0,0.1,0,0.2,0.1,0.3c0.1,0.1,0.1,0.1,0.2,0.1s0.2,0,0.2-0.1C465.4,347.8,465.4,347.7,465.4,347.6z"/>
	<path class="st41" d="M467.6,347.9c0,0.3-0.1,0.6-0.2,0.8c-0.1,0.2-0.4,0.3-0.6,0.3s-0.4-0.1-0.6-0.2l0.2-0.3   c0.1,0.1,0.3,0.1,0.4,0.1c0.2,0,0.3-0.1,0.4-0.2s0.1-0.2,0.1-0.4c0,0.1-0.1,0.1-0.2,0.2c-0.1,0-0.2,0.1-0.3,0.1   c-0.2,0-0.3-0.1-0.5-0.2c-0.1-0.1-0.2-0.3-0.2-0.5s0.1-0.4,0.2-0.5s0.3-0.2,0.5-0.2s0.4,0.1,0.6,0.3   C467.6,347.3,467.6,347.6,467.6,347.9z M467.2,347.6c0-0.1,0-0.2-0.1-0.3s-0.1-0.1-0.2-0.1s-0.2,0-0.2,0.1   c-0.1,0.1-0.1,0.2-0.1,0.3c0,0.1,0,0.2,0.1,0.3c0.1,0.1,0.1,0.1,0.2,0.1s0.2,0,0.2-0.1C467.2,347.8,467.2,347.7,467.2,347.6z"/>
	<path class="st41" d="M469.6,347.7c0,0.3-0.1,0.5-0.2,0.6c-0.2,0.2-0.4,0.2-0.6,0.2s-0.5-0.1-0.6-0.2c-0.2-0.2-0.2-0.4-0.2-0.6   s0.1-0.4,0.2-0.6c0.2-0.2,0.4-0.2,0.6-0.2c0.3,0,0.5,0.1,0.6,0.2S469.6,347.5,469.6,347.7z M469.2,347.7c0-0.1,0-0.3-0.1-0.4   s-0.2-0.1-0.3-0.1c-0.1,0-0.2,0-0.3,0.1c-0.1,0.1-0.1,0.2-0.1,0.4c0,0.2,0,0.3,0.1,0.4s0.2,0.1,0.3,0.1c0.1,0,0.2-0.1,0.3-0.2   C469.1,348,469.2,347.9,469.2,347.7z"/>
</g>
<polygon class="st38" points="349.5,374.9 306.2,395.6 349.5,395.5 "/>
<polygon class="st38" points="583.3,374.9 626.5,395.6 583.3,395.5 "/>
<path class="st34" d="M320.6,396.7c0,0-7.5-1.5-13.3-1.4c-5.6,0.1-12,1.5-12,1.5s4.7-4.2,5.2-5.5c2.8-7-1.5-28.4-1.5-28.4l-12.2-7.4  l-6-15.9h3l6,14.1L302,359l-2.7-12.2v-9.2h2.4l0.3,9.5l5.7,11.9l14.5-19.5l2.2,2.5l-12.5,17l12.6,1.1l10.9-10.7l1.5,1.8l-10.7,12.5  l-13.7,1.2c0,0-1.8,23.1,0.4,25.8C315,393.5,320.6,396.7,320.6,396.7z"/>
<path class="st35" d="M355.4,349c0,8.7-8.3,14.6-17,14.6c-5.9,0-7.5-4.9-10.2-9.6c-2.2,1.1-4.8,2.3-7.4,1.8  c-5.9-1.1-8.3-2.6-13.9-7.6c-2.8,3.2-6.8,5.3-11.4,5.3c-5.2,0-9.8-2.6-12.5-6.5c-3.9,8.2-3.5,9.8-13,11.6c-7.1,1.4-10.2-4.5-13.2-13  c-2.3-6.9,5.8-13.1,13.1-13.2c1,0,2.1,0.1,3,0.3c-3-3-4.9-7.2-4.9-11.8c0-9.3,5.2-16.7,14.5-16.7c1.2,0,4.6,0,5.7,0.2  c-1-2-1.5-4.3-1.5-6.7c0-8.7,4.8-15.6,13.4-15.6c6,0,13.4,3.1,16.1,8c1.1-0.3,2.3-0.4,3.5-0.4c8.6,0,15.5,5.4,15.5,14  c0,2.5-0.5,6.3-1.5,8.4c1.3-0.5,2.6-0.7,4.1-0.7c6.5,0,9.9,5,9.9,11.5c0,3.2,0.7,6.4-1.3,8.5C352.8,333.2,355.4,342,355.4,349z"/>
<path class="st36" d="M275.8,349.6c0,5.7,4.6,10.4,10.4,10.5c4.3,0,9.1-1.3,10.7-5.1c2,1.7,6.4,2.5,9.2,2.6c3.9,0,5.6-1.7,7.7-4.7  c1,4.7,5.2,8.2,10.1,8.2c0.8,0,1.6-0.1,2.4-0.3c1.2,3.2,4.3,3.6,8,3.6c4.7,0,8.6-3.8,8.6-8.5c0-4.5-3.4-6.2-7.9-6.6  c2.9-1.9,3.4-6.1,3.4-9.8c0-5.1-2.1-8.6-6.9-9.7c0.1-0.7,1.3-3.3,1.3-4c0-9.1-8.5-14.7-17.5-14.7c-0.3,0-0.6,0-0.8,0  c-1.9-3.1-7.5-4.9-11.3-4.9c-5.9,0-8.4,4.5-8.4,10.3c0,1.7,0.4,3.4,1.1,4.8c-0.8-0.2-4.4,0-5.3,0c-6,0-8.3,4.5-8.3,10.6  c0,3.5,1.6,6.5,4.1,8.6C281.2,340.8,275.9,344.1,275.8,349.6z M316.1,343.9c-0.1,0.1-0.1,0.1-0.2,0.2c0-0.1,0-0.1,0-0.2  C316,343.9,316.1,343.9,316.1,343.9z"/>
<rect x="740.4" y="85.6" class="st2" width="8.5" height="14.3"/>
<rect x="748.9" y="99.9" class="st2" width="8.5" height="14.3"/>
<rect x="887" y="114.2" class="st2" width="8.5" height="14.3"/>
<rect x="903.6" y="114.2" class="st2" width="8.5" height="14.3"/>
<rect x="953.7" y="128.6" class="st2" width="8.5" height="14.3"/>
<rect x="944.6" y="142.9" class="st2" width="8.5" height="14.3"/>
<rect x="870.4" y="157.2" class="st2" width="8.5" height="14.3"/>
<rect x="842.3" y="185.8" class="st2" width="8.5" height="14.3"/>
<rect x="833.8" y="185.8" class="st2" width="8.5" height="14.3"/>
<rect x="825.3" y="185.8" class="st2" width="8.5" height="14.3"/>
<rect x="924.3" y="200.2" class="st2" width="8.5" height="14.3"/>
<rect x="771.7" y="214.5" class="st2" width="8.5" height="14.3"/>
<rect x="731.8" y="228.1" class="st2" width="8.5" height="14.3"/>
<rect x="806" y="228.1" class="st2" width="8.5" height="14.3"/>
<rect x="929.3" y="242.6" class="st2" width="8.5" height="14.3"/>
<rect x="861.9" y="256.9" class="st2" width="8.5" height="14.3"/>
<rect x="767.4" y="271.2" class="st2" width="8.5" height="14.3"/>
<rect x="964.1" y="285.6" class="st2" width="8.5" height="14.3"/>
<rect x="794.5" y="299.9" class="st2" width="8.5" height="14.3"/>
<rect x="897.7" y="314.2" class="st2" width="8.5" height="14.3"/>
<rect x="906.2" y="328.5" class="st2" width="8.5" height="14.3"/>
<rect x="866.2" y="342.5" class="st2" width="8.5" height="14.3"/>
<rect x="857.7" y="342.5" class="st2" width="8.5" height="14.3"/>
<rect x="849.4" y="342.5" class="st2" width="8.5" height="14.3"/>
<rect x="897.7" y="381.1" class="st2" width="8.5" height="14.3"/>
<rect x="889.2" y="381.1" class="st2" width="8.5" height="14.3"/>
<rect x="880.7" y="381.1" class="st2" width="8.5" height="14.3"/>
<rect x="872.2" y="381.1" class="st2" width="8.5" height="14.3"/>
<rect x="863.7" y="381.1" class="st2" width="8.5" height="14.3"/>
<rect x="713.5" y="127.6" class="st2" width="8.1" height="13.7"/>
<rect x="687.7" y="175.8" class="st2" width="8.1" height="13.7"/>
<rect x="675.1" y="82.2" class="st2" width="8.1" height="13.7"/>
<rect x="681.1" y="264.3" class="st2" width="8.1" height="13.7"/>
<rect x="689.3" y="264.3" class="st2" width="8.1" height="13.7"/>
<rect x="712.5" y="204.7" class="st2" width="8.1" height="13.7"/>
<path class="st34" d="M668,397.1c0,0-10.1-2.1-17.9-1.9c-7.5,0.2-16.2,2-16.2,2s6.3-5.6,7-7.4c3.8-9.4-2-38.3-2-38.3l-16.5-9.9  l-8.1-21.4h4l8.1,19l16.4,7.1l-3.7-16.4l-0.1-12.4h3.2l0.5,12.8l7.7,16l19.5-26.3l3,3.4l-16.8,22.9l16.9,1.5l14.6-14.5l2,2.4  l-14.4,16.9l-18.4,1.7c0,0-2.4,31.1,0.5,34.7C660.4,392.7,668,397.1,668,397.1z"/>
<path class="st35" d="M713.5,332.9c0,11.7-11.2,19.7-22.9,19.7c-7.9,0-10.1-6.6-13.7-13c-3,1.5-6.4,3.1-9.9,2.4  c-8-1.5-11.1-3.5-18.7-10.3c-3.7,4.3-9.2,7.1-15.4,7.1c-7,0-13.2-3.5-16.8-8.8c-5.3,11.1-4.7,13.2-17.5,15.7  c-9.6,1.8-13.8-6.1-17.7-17.6c-3.2-9.2,7.8-17.7,17.6-17.7c1.4,0,2.8,0.2,4.1,0.5c-4.1-4.1-6.6-9.7-6.6-15.9  c-0.1-12.5,7-22.4,19.5-22.5c1.6,0,6.2-0.1,7.7,0.3c-1.3-2.7-2.1-5.8-2.1-9.1c0-11.7,6.4-21,18.1-21.1c8,0,18,4.2,21.7,10.8  c1.5-0.3,3.1-0.5,4.7-0.5c11.6,0,20.9,7.3,20.9,18.8c0,3.3-0.6,8.5-2,11.3c1.7-0.6,3.5-1,5.5-1c8.8,0,13.3,6.7,13.4,15.5  c0,4.3,0.9,8.6-1.8,11.4C710,311.5,713.4,323.4,713.5,332.9z"/>
<path class="st36" d="M665.6,317.3c3.4-2.7,5.5-6.9,5.5-11.5c0-8.1-3-14.3-11.2-14.2c-1.2,0-6-0.3-7.1,0c1-2,1.6-4.2,1.5-6.5  c0-7.9-3.4-14-11.3-13.9c-5.2,0-12.8,2.5-15.3,6.6c-0.4,0-0.7,0-1.1,0c-12.2,0-23.7,7.6-23.6,19.8c0,1,1.6,4.5,1.8,5.4  c-6.5,1.5-9.4,6.2-9.3,13.1c0,5,0.7,10.6,4.6,13.2c-6,0.5-10.6,2.8-10.6,8.9c0,6.4,5.2,11.5,11.6,11.5c4.9,0,9.1-0.4,10.8-4.8  c1,0.2,2.1,0.4,3.2,0.4c6.7,0,12.3-4.8,13.7-11.1c2.9,4,5.1,6.3,10.4,6.3c3.8,0,9.7-1.2,12.4-3.4c2.2,5,8.6,6.8,14.4,6.8  c7.7,0,14-6.3,14-14.1C680,322.1,672.9,317.8,665.6,317.3z M626.1,321.9c0,0.1,0,0.2,0,0.3c-0.1-0.1-0.1-0.2-0.2-0.3  C625.9,321.9,626,321.9,626.1,321.9z"/>
<linearGradient id="SVGID_1_" gradientUnits="userSpaceOnUse" x1="580.6379" y1="327.8798" x2="619.6121" y2="327.8798">
	<stop offset="0" style="stop-color:#D8B032"/>
	<stop offset="1" style="stop-color:#414920"/>
</linearGradient>
<path class="st42" d="M619.3,330.1c0,1.1-0.1,2.2-0.2,3.3c-0.6,4.5-2.5,8.6-5.2,11.8c-0.7-0.1-1.3-0.2-1.9-0.3  c-1.7,4.4-5.9,4.8-10.8,4.8c-3.8,0-7.2-1.8-9.3-4.6c-5.1-2.2-8.1-8.7-10.9-17c-3-8.5,6.2-16.4,15.3-17.5c0.3-0.9,0.7-1.8,1.1-2.5  c0.4-0.7,1-1.4,1.5-2c0.4,0.7,0.8,1.3,1.3,2C610.9,308.8,619.3,318.4,619.3,330.1z"/>
<linearGradient id="SVGID_2_" gradientUnits="userSpaceOnUse" x1="300.92" y1="331.7698" x2="355.4" y2="331.7698">
	<stop offset="0" style="stop-color:#414920;stop-opacity:0"/>
	<stop offset="1" style="stop-color:#D3AD31;stop-opacity:0.4"/>
</linearGradient>
<path class="st43" d="M355.3,347.1c-0.4-6.6-3.1-14-8.9-15.7c2-2.1,1.3-5.3,1.3-8.5c0-6.5-3.4-11.5-9.9-11.5c-1.5,0-2.8,0.2-4.1,0.7  c1-2.1,1.5-5.9,1.5-8.4c0-1.3-0.2-2.6-0.5-3.8h0c-8.1,0-17.4,2.9-24.1,8c-5.7,4.2-9.7,10-9.7,16.7c0,10.7,5.4,26.1,21.9,31.3  c1.9-0.2,3.7-1.1,5.3-1.9c0.6,1.1,1.2,2.3,1.8,3.3c1.8,3.3,3.8,6,7.9,6.2c0.2,0,0.3,0,0.5,0c8.7,0,17-5.9,17-14.6  C355.4,348.4,355.4,347.7,355.3,347.1z M315.9,344.1c0-0.1,0-0.1,0-0.2c0.1,0,0.2,0,0.2,0C316,344,316,344,315.9,344.1z"/>
<radialGradient id="SVGID_3_" cx="361.1077" cy="371.9914" r="27.1783" gradientUnits="userSpaceOnUse">
	<stop offset="1.177262e-03" style="stop-color:#D3AD31;stop-opacity:0.6"/>
	<stop offset="1" style="stop-color:#414920;stop-opacity:0"/>
</radialGradient>
<path class="st44" d="M390.6,367c-0.1,1.8-0.4,3.7-1.2,5.5c-0.6-0.1-1.1-0.1-1.7-0.2c-0.4,0-0.7,0-1.1,0c-0.4,0-0.8,0-1.2,0  c-7.9,0.4-14.7,4.7-18.6,10.9c-1.9,0-2.9,6.4-5.1,6.2c-0.1,0-6.3,6.1-6.3,6.1c-3.8-0.2-2.8-6.1-6.3-5.5c-0.1,0,0.1-3.1,0-3.1  c-9.9,1.7-17.3,2-17.3-1.8c0-0.7,0.2-1.4,0.7-2.2l16.9-8.1v-0.1c0,0,16.2-8.7,40.2-16.8c0.6,0.3,0.9,0.8,0.9,1.5  C390.3,361,390.8,363.8,390.6,367z"/>
<radialGradient id="SVGID_4_" cx="567.97" cy="375.1098" r="37.0819" fx="572.3008" fy="367.9809" gradientTransform="matrix(1 0 0 0.6 0 150.0439)" gradientUnits="userSpaceOnUse">
	<stop offset="0" style="stop-color:#D3AD31;stop-opacity:0.6"/>
	<stop offset="1" style="stop-color:#414920;stop-opacity:0"/>
</radialGradient>
<path class="st45" d="M616.3,390.7c-2.7,1.8-5.7,3.4-9.1,4.9l-23.8-0.1h-13.9c0-12.4-9.8-22.6-22.1-23.2c-0.4,0-0.7,0-1.1,0  c-0.4,0-0.8,0-1.2,0c-8.8,0.4-16.3,5.7-19.9,13.3c-1.5-1.6-2.7-3.3-3.6-5.1c-1.2-2.4-1.8-4.9-1.8-7.4c0-7,4.8-13.5,12.7-18.4  c29.7,9,50.9,20.2,50.9,20.2L616.3,390.7z"/>
</svg>