<?xml version="1.0" encoding="utf-8"?>
<!-- Generator: Adobe Illustrator 24.0.0, SVG Export Plug-In . SVG Version: 6.00 Build 0)  -->
<svg version="1.1" id="Layer_1" xmlns="http://www.w3.org/2000/svg" xmlns:xlink="http://www.w3.org/1999/xlink" x="0px" y="0px"
	 viewBox="0 0 917.9 395.6" style="enable-background:new 0 0 917.9 395.6;" xml:space="preserve">
<style type="text/css">
	.st0{fill:none;stroke:#000000;stroke-width:1.1028;stroke-miterlimit:10;}
	.st1{fill:none;stroke:#263238;stroke-width:1.1028;stroke-miterlimit:10;}
	.st2{fill:none;stroke:#000000;stroke-width:0.5514;stroke-miterlimit:10;}
	.st3{fill:none;stroke:#000000;stroke-width:0.5514;stroke-miterlimit:10;stroke-dasharray:0.5531,0.5531;}
	.st4{fill:none;stroke:#000000;stroke-width:1.1028;stroke-linejoin:round;stroke-miterlimit:10;}
	.st5{stroke:#000000;stroke-width:0.5514;stroke-miterlimit:10;}
	.st6{fill:#597E9B;}
	.st7{fill:#236A99;}
	.st8{fill:#1D1D1B;}
	.st9{fill:#C92228;stroke:#1D1D1B;stroke-width:0.76;stroke-miterlimit:10;}
	.st10{fill:#22557E;stroke:#1D1D1B;stroke-width:0.38;stroke-miterlimit:10;}
	.st11{fill:#4E1012;stroke:#1D1D1B;stroke-width:0.76;stroke-linejoin:round;}
	.st12{fill:#C72227;stroke:#1D1D1B;stroke-width:0.76;stroke-miterlimit:10;}
	.st13{fill:#181918;stroke:#1D1D1B;stroke-width:0.76;stroke-miterlimit:10;}
	.st14{fill:#383737;stroke:#1D1D1B;stroke-width:0.76;stroke-miterlimit:10;}
	.st15{fill:#121212;stroke:#1D1D1B;stroke-width:0.76;stroke-miterlimit:10;}
	.st16{fill:#0C2232;}
	.st17{fill:#235B83;}
	.st18{fill:#111313;}
	.st19{fill:#BCBCBC;stroke:#1D1D1B;stroke-width:0.76;stroke-miterlimit:10;}
	.st20{fill:#009EE2;stroke:#888888;stroke-width:0.2261;stroke-miterlimit:10;}
	.st21{fill:#1D1D1B;stroke:#888888;stroke-width:0.2261;stroke-miterlimit:10;}
	.st22{fill:#6E472A;}
	.st23{fill:#83A03A;}
	.st24{fill:#A0BF55;}
	.st25{fill:#2A4421;}
	.st26{fill:#CC9F6E;}
	.st27{fill:#8C7751;}
	.st28{fill:#D3CC9F;}
	.st29{fill:#7F7B66;}
</style>
<g>
	<circle class="st0" cx="464.6" cy="358.2" r="8.8"/>
	<circle class="st0" cx="436.6" cy="347.5" r="8.8"/>
	<circle cx="464.6" cy="358.2" r="1.7"/>
	<circle cx="436.6" cy="347.5" r="1.7"/>
	<path class="st1" d="M455.3,352.9"/>
	<path class="st0" d="M464.6,358.2c0,0-0.6-6.6-5.6-12.3c-5.4-6.2-12.7-8.9-12.7-8.9"/>
	<path class="st0" d="M446.3,336.9c0,0,1.9,3.6,2.9,6.6c1.7,4.8,0.9,7,0.9,7"/>
	<path class="st2" d="M447.4,351.7c-0.4,1.1,0.1,2.3,1.2,2.8c1.1,0.4,2.3-0.1,2.8-1.2c0.1-0.2,0.1-0.5,0.1-0.7c0-0.9-0.5-1.7-1.4-2
		c-0.9-0.3-1.8-0.1-2.4,0.6C447.7,351.2,447.5,351.4,447.4,351.7z"/>
	<line class="st0" x1="450.2" y1="350.5" x2="460.5" y2="340.2"/>
	<path class="st1" d="M448.7,354.4"/>
	<g>
		<path class="st3" d="M448.7,354.4l15.3,5.3c0.9,0.3,1.8-0.1,2.1-1s-0.1-1.8-1-2.1l-14.9-6.2c-0.9-0.3-1.8-0.1-2.4,0.6
			c-0.2,0.2-0.3,0.4-0.4,0.6C447,352.8,447.6,354,448.7,354.4z"/>
	</g>
	<line class="st2" x1="449.4" y1="352.4" x2="446.4" y2="354.5"/>
	<path d="M445.7,354.7l0.9,0.4c0.3,0.1,0.6,0,0.7-0.3l0,0c0.1-0.3,0-0.6-0.3-0.7l-0.9-0.4c-0.3-0.1-0.6,0-0.7,0.3l0,0
		C445.3,354.3,445.4,354.6,445.7,354.7z"/>
	<polyline class="st4" points="451.4,332.1 447.2,330.5 448.2,334.7 436.6,347.5 	"/>
	<path d="M449.9,332.9l2.2,0.8c0.7,0.3,1.4-0.1,1.7-0.7l0,0c0.3-0.7-0.1-1.4-0.7-1.7l-2.2-0.8c-0.7-0.3-1.4,0.1-1.7,0.7l0,0
		C448.9,331.9,449.2,332.7,449.9,332.9z"/>
	<path d="M457.2,339.4c0.7,0.8,1,1.1,2.8,1.8c1.4,0.6,2.2,1.7,3.1,1.5c0.7-0.2,1.4-1.7,1-2.4c-0.5-0.7-2-0.5-3.3-0.8
		c-1.3-0.4-2.7-1.5-3.5-1.1C457,338.4,456.9,339,457.2,339.4z"/>
	<path class="st0" d="M447.1,347.2c-0.1-4.1-2.7-7.9-6.8-9.5"/>
	<path class="st0" d="M475,357.1c-0.4-3.8-2.9-7.3-6.7-8.7c-4.7-1.8-10,0.1-12.6,4.2"/>
	<path class="st5" d="M446.7,350.6L446.7,350.6l1.1,0.5c0.6-0.7,1.5-0.9,2.4-0.6c0.9,0.3,1.4,1.2,1.4,2l15.5,5.9l0,0
		c0.4-0.9-0.1-2-1.1-2.3l-17-6.5C448.1,349.1,447.1,349.6,446.7,350.6z"/>
</g>
<g>
	<circle class="st0" cx="298.3" cy="345.1" r="8.8"/>
	<circle class="st0" cx="327.6" cy="338.5" r="8.8"/>
	<circle cx="298.3" cy="345.1" r="1.7"/>
	<circle cx="327.6" cy="338.5" r="1.7"/>
	<path class="st1" d="M308.3,341.2"/>
	<path class="st0" d="M298.3,345.1c0,0,1.5-6.4,7.3-11.4c6.2-5.3,13.8-7,13.8-7"/>
	<path class="st0" d="M319.4,326.7c0,0-2.4,3.3-3.8,6.1c-2.4,4.5-1.9,6.8-1.9,6.8"/>
	<path class="st2" d="M316.2,341.1c0.3,1.2-0.5,2.3-1.6,2.5c-1.1,0.3-2.3-0.5-2.5-1.6c-0.1-0.2-0.1-0.5,0-0.7
		c0.1-0.9,0.8-1.6,1.7-1.8c0.9-0.2,1.8,0.2,2.3,0.9C316.1,340.6,316.2,340.8,316.2,341.1z"/>
	<line class="st0" x1="313.7" y1="339.5" x2="304.9" y2="327.9"/>
	<path class="st1" d="M314.6,343.6"/>
	<g>
		<path class="st3" d="M314.6,343.6l-15.9,3.1c-0.9,0.2-1.8-0.4-2-1.3c-0.2-0.9,0.4-1.8,1.3-2l15.7-4c0.9-0.2,1.8,0.2,2.3,0.9
			c0.1,0.2,0.2,0.4,0.3,0.7C316.5,342.2,315.7,343.4,314.6,343.6z"/>
	</g>
	<line class="st2" x1="314.1" y1="341.5" x2="316.9" y2="344.1"/>
	<path d="M317.5,344.4l-1,0.2c-0.3,0.1-0.6-0.1-0.7-0.4l0,0c-0.1-0.3,0.1-0.6,0.4-0.7l1-0.2c0.3-0.1,0.6,0.1,0.7,0.4l0,0
		C318,344,317.8,344.3,317.5,344.4z"/>
	<polyline class="st4" points="315.1,321.2 319.5,320.2 317.9,324.2 327.6,338.5 	"/>
	<path d="M316.5,322.2l-2.3,0.5c-0.7,0.2-1.4-0.3-1.5-1l0,0c-0.2-0.7,0.3-1.4,1-1.5l2.3-0.5c0.7-0.2,1.4,0.3,1.5,1l0,0
		C317.6,321.3,317.2,322,316.5,322.2z"/>
	<path d="M308.3,327.5c-0.8,0.7-1.1,0.9-3,1.3c-1.5,0.3-2.4,1.4-3.2,1c-0.7-0.3-1.2-1.9-0.6-2.5c0.6-0.7,2-0.2,3.4-0.4
		c1.3-0.2,2.9-1.1,3.6-0.6C308.7,326.6,308.6,327.2,308.3,327.5z"/>
	<path class="st0" d="M317.2,336.7c0.7-4,3.8-7.5,8.1-8.4"/>
	<path class="st0" d="M288.1,342.5c0.9-3.7,3.9-6.8,7.9-7.7c5-1.1,9.9,1.5,11.9,6"/>
	<path class="st5" d="M317.1,340.1L317.1,340.1l-1.2,0.3c-0.5-0.7-1.4-1.1-2.3-0.9c-0.9,0.2-1.5,0.9-1.7,1.8l-16.1,3.6l0,0
		c-0.2-1,0.4-1.9,1.4-2.2l17.7-4C315.9,338.5,316.9,339.1,317.1,340.1z"/>
</g>
<rect x="253.4" y="389.5" class="st6" width="219.7" height="6"/>
<title>tudelt-ewi</title>
<polygon class="st7" points="629,395.5 624.2,70.9 901.8,70.9 893,395.5 "/>
<path class="st8" d="M901.4,71.3l-8.8,323.8H629.4l-4.8-323.8H901.4 M902.2,70.5H623.8v0.8l4.8,323.8v0.8h264.7v-0.7l8.8-323.8
	L902.2,70.5L902.2,70.5z"/>
<polygon class="st9" points="571.1,395.1 629.4,395.1 624.6,75.5 565.1,75.5 "/>
<path class="st10" d="M883.5,28.6"/>
<polygon class="st11" points="564.2,47.9 573.2,54.8 573.2,50.5 569.7,47.9 "/>
<rect x="573.2" y="52.4" class="st12" width="51.4" height="3.5"/>
<polyline class="st13" points="624.6,52.4 624.6,48.9 569.7,48.9 573.2,52.4 624.6,52.4 "/>
<polygon class="st14" points="583.4,74.5 583.4,47.8 584.5,47.8 586.7,74.5 "/>
<polygon class="st15" points="584.5,47.8 589,47.8 589.5,74.5 586.7,74.5 "/>
<polyline class="st12" points="624.6,36.4 624.6,48.9 564.2,48.9 564.2,36.4 624.6,36.4 "/>
<path class="st16" d="M890.8,51.1c-0.1,0-0.1,0-0.2,0c-0.1-0.1-0.2-0.2-0.2-0.3v-4c0-0.1,0.1-0.2,0.2-0.3l5.8-4
	c0.1,0,0.1-0.1,0.2-0.1h6.5c0.2,0,0.3,0.1,0.4,0.3c0.1,0.2,0,0.3-0.2,0.4l-12.3,8C890.9,51.1,890.9,51.2,890.8,51.1z"/>
<path class="st8" d="M903.1,42.7l-12.3,8v-4l5.8-4H903.1 M903.1,42h-6.5c-0.2,0-0.3,0.1-0.4,0.1l-5.8,4c-0.2,0.1-0.3,0.4-0.3,0.6v4
	c0,0.3,0.2,0.5,0.4,0.7c0.1,0.1,0.2,0.1,0.4,0.1c0.1,0,0.3,0,0.4-0.1l12.3-8c0.4-0.2,0.5-0.7,0.2-1C903.6,42.1,903.4,42,903.1,42
	L903.1,42z"/>
<rect x="624.2" y="46.4" class="st17" width="266.3" height="4.8"/>
<path class="st8" d="M890.2,46.7v4H624.6v-4L890.2,46.7 M890.9,46H623.8v5.5h267.1L890.9,46L890.9,46z"/>
<polygon class="st18" points="624.2,47.1 624.2,42.3 898,42.3 890.2,47.1 "/>
<path class="st8" d="M896.6,42.7l-6.5,4H624.6v-4H896.6 M899.3,42H623.8v5.5h266.5l0.2-0.1l6.5-4L899.3,42L899.3,42z"/>
<polygon class="st15" points="873.8,70.6 877.4,70.6 880.7,42.7 873.8,42.7 "/>
<polygon class="st14" points="877.4,70.6 881.2,70.6 882.9,42.7 880.7,42.7 "/>
<polygon class="st19" points="624.6,42.7 624.6,71.3 849.4,70.6 850.5,42.7 "/>
<polygon class="st7" points="624.2,43.1 624.2,30.2 903.5,29.4 903.5,43.1 "/>
<path class="st8" d="M903.1,29.8v13H624.6V30.5L903.1,29.8 M903.9,29h-0.8l-278.5,0.8h-0.8v13.7h280L903.9,29L903.9,29z"/>
<g>
	<path class="st20" d="M764,64.2c2.3,0.2,4.4-1.6,4.5-3.9c0-0.2,0-0.5,0-0.7V45.8h6.2v14c-0.1,6.2-5,8.6-10.6,8.6
		s-10.5-2.4-10.6-8.6v-14h6.2v13.7c-0.2,2.3,1.5,4.4,3.8,4.6C763.6,64.2,763.8,64.2,764,64.2"/>
	<path class="st21" d="M804.7,58.8c0-2.4,1.5-4.6,3.9-4.6c2.8,0,3.9,1.9,3.9,4.6H804.7 M815.6,60.9v-1.4c0-4.3-2.4-7.3-6.8-7.3
		c-4.9,0-7.2,3.8-7.2,8.3s2,8.1,6.9,8.1c3.7,0,6.4-1.8,6.9-5.3h-3.1c-0.3,2.3-1.5,3.1-3.7,3.1c-3,0-4-2.6-4-5.5L815.6,60.9z"/>
	<rect x="819.2" y="45.8" class="st21" width="2.9" height="22.2"/>
	<polyline class="st21" points="737.5,68 743.6,68 743.6,50.1 750.5,50.1 750.5,45.8 730.6,45.8 730.6,50.1 737.5,50.1 737.5,68 	
		"/>
	<path class="st21" d="M752.2,35c-1.5,0.5-3.1,0.1-3-1.9c0-3.1,7.2-5.7,8.2-8.3c0.2-0.7,0.3-1.2,0-1.2c-0.3,0,0,0.3-0.6,0.8
		c-3,3-7.9,3-11.8,4.7c-2.5,1.1-9.9,4.6-8.2,12.3c0.1,0.4,0.3,1.6,0.5,1.6c0.2,0,0.3-0.7,0.2-1.6c0-4.6,5.4-5.9,7.2-8.9
		c0.2-0.4,0.6-0.9,0.7-0.6c0,0.2,0,0.4-0.1,0.6c-0.6,2.5-3.1,4-2.4,5.8c0.9,2.3,3.7,0.6,4.5-0.9c0.2-0.4,0.4-0.7,0.5-0.6
		c0.1,0,0.1,0.5,0,0.9c-0.5,2.7-1.1,4.1-3,5.7c-0.6,0.5-1.6,0.6-1.5,1c0,0.1,0.5,0.1,0.8,0c5.2-0.3,9.5-6.4,10.6-10.4
		c0.1-0.3,0.2-0.5,0-0.6c-0.2-0.1-0.4,0.1-0.6,0.4C753.7,34.2,753,34.7,752.2,35"/>
	<path class="st21" d="M831.3,68V54.6h3.6v-2h-3.6v-2.5c0-1.8,0.9-2.1,2.5-2.1c0.5,0,1,0.1,1.5,0.1v-2.4c-0.7-0.2-1.4-0.3-2.1-0.3
		c-2.8,0-4.8,1.4-4.8,4.3v2.9h-3v2h3V68H831.3"/>
	<path class="st21" d="M836.5,52.6v2h2.6v9.8c0,2.1,0,4,4.4,4c0.7,0,1.3-0.1,2-0.2V66c-0.5,0.1-1,0.2-1.5,0.2c-1,0-1.9-0.5-1.9-1.6
		v-10h3.6v-2h-3.6v-4.2l-2.9,0.9v3.3H836.5"/>
	<path class="st21" d="M780.7,68h7.6c9.5,0,10.5-8,10.5-11.1s-1-11.1-10.5-11.1h-7.6V68 M783.8,48.5h4.5c5.1,0,7.3,3.9,7.3,8.5
		s-2.1,8.5-7.3,8.5h-4.5V48.5z"/>
</g>
<path class="st22" d="M123.5,396.7c0,0,6.6-1.3,11.7-1.2c4.9,0.1,10.6,1.3,10.6,1.3s-4.1-3.7-4.6-4.8c-2.5-6.1,1.3-25,1.3-25
	l10.7-6.5l5.3-14l-2.6,0l-5.3,12.4l-10.7,4.7l2.4-10.7l0-8.1l-2.1,0l-0.3,8.4l-5,10.4l-12.7-17.2l-1.9,2.2l11,14.9l-11.1,1l-9.6-9.4
	l-1.3,1.6l9.4,11l12,1.1c0,0,1.6,20.3-0.3,22.7C128.4,393.9,123.5,396.7,123.5,396.7z"/>
<path class="st23" d="M93.8,354.8c0,7.6,7.3,12.8,15,12.9c5.2,0,6.6-4.3,9-8.5c2,1,4.2,2,6.5,1.6c5.2-1,7.3-2.3,12.2-6.7
	c2.4,2.8,6,4.6,10,4.6c4.6,0,8.6-2.3,11-5.7c3.5,7.2,3.1,8.6,11.4,10.2c6.3,1.2,9-4,11.6-11.5c2.1-6-5.1-11.5-11.5-11.6
	c-0.9,0-1.8,0.1-2.7,0.3c2.6-2.7,4.3-6.3,4.3-10.4c0-8.2-4.6-14.7-12.8-14.7c-1,0-4,0-5,0.2c0.9-1.8,1.3-3.8,1.4-5.9
	c0-7.6-4.2-13.7-11.8-13.7c-5.2,0-11.8,2.7-14.1,7c-1-0.2-2-0.4-3-0.4c-7.5,0-13.6,4.7-13.6,12.3c0,2.2,0.4,5.6,1.3,7.4
	c-1.1-0.4-2.3-0.6-3.6-0.6c-5.7,0-8.7,4.4-8.7,10.1c0,2.8-0.6,5.6,1.2,7.5C96.1,340.9,93.8,348.6,93.8,354.8z"/>
<path class="st24" d="M158.1,350.1c2.4-1.4,4.2-3.9,4.6-6.9c0.7-5.3-0.6-9.5-5.9-10.2c-0.8-0.1-3.8-0.8-4.6-0.7
	c0.8-1.2,1.4-2.6,1.6-4.1c0.7-5.1-0.9-9.3-6-10.1c-3.4-0.5-8.5,0.4-10.5,2.8c-0.2,0-0.5-0.1-0.7-0.1c-7.9-1.1-16,2.7-17.1,10.6
	c-0.1,0.7,0.6,3,0.6,3.7c-4.3,0.4-6.6,3.1-7.3,7.6c-0.5,3.3-0.5,6.9,1.8,9c-3.9-0.3-7.1,0.8-7.7,4.7c-0.6,4.1,2.3,7.9,6.4,8.5
	c3.2,0.5,5.9,0.6,7.4-2.1c0.6,0.3,1.3,0.4,2.1,0.5c4.3,0.6,8.4-1.9,9.9-5.9c1.5,2.8,2.7,4.6,6.1,5.1c2.5,0.3,6.4,0.2,8.4-1.1
	c0.9,3.4,4.9,5.2,8.6,5.8c5,0.7,9.6-2.8,10.3-7.8C166.9,354.6,162.7,351.1,158.1,350.1z M132.1,349.4c0,0.1,0,0.1-0.1,0.2
	c0-0.1-0.1-0.1-0.1-0.2C132,349.3,132,349.3,132.1,349.4z"/>
<path class="st22" d="M69.4,396.7c0,0-7.5-1.5-13.3-1.4c-5.6,0.1-12,1.5-12,1.5s4.7-4.2,5.2-5.5c2.8-7-1.5-28.4-1.5-28.4l-12.2-7.4
	l-6-15.9l3,0l6,14.1l12.2,5.3l-2.7-12.2l0-9.2l2.4,0l0.3,9.5l5.7,11.9l14.5-19.5l2.2,2.5l-12.5,17l12.6,1.1l10.9-10.7l1.5,1.8
	l-10.7,12.5l-13.7,1.2c0,0-1.8,23.1,0.4,25.8C63.8,393.5,69.4,396.7,69.4,396.7z"/>
<path class="st23" d="M103.2,349c0,8.7-8.3,14.6-17,14.6c-5.9,0-7.5-4.9-10.2-9.6c-2.2,1.1-4.8,2.3-7.4,1.8
	c-5.9-1.1-8.3-2.6-13.9-7.6c-2.8,3.2-6.8,5.3-11.4,5.3c-5.2,0-9.8-2.6-12.5-6.5c-3.9,8.2-3.5,9.8-13,11.6c-7.1,1.4-10.2-4.5-13.2-13
	c-2.3-6.9,5.8-13.1,13.1-13.2c1,0,2.1,0.1,3,0.3c-3-3-4.9-7.2-4.9-11.8c0-9.3,5.2-16.7,14.5-16.7c1.2,0,4.6,0,5.7,0.2
	c-1-2-1.5-4.3-1.5-6.7c0-8.7,4.8-15.6,13.4-15.6c6,0,13.4,3.1,16.1,8c1.1-0.3,2.3-0.4,3.5-0.4c8.6,0,15.5,5.4,15.5,14
	c0,2.5-0.5,6.3-1.5,8.4c1.3-0.5,2.6-0.7,4.1-0.7c6.5,0,9.9,5,9.9,11.5c0,3.2,0.7,6.4-1.3,8.5C100.6,333.2,103.2,342,103.2,349z"/>
<path class="st24" d="M24,349.6c0,5.7,4.6,10.4,10.4,10.5c4.3,0,9.1-1.3,10.7-5.1c2,1.7,6.4,2.5,9.2,2.6c3.9,0,5.6-1.7,7.7-4.7
	c1,4.7,5.2,8.2,10.1,8.2c0.8,0,1.6-0.1,2.4-0.3c1.2,3.2,4.3,3.6,8,3.6c4.7,0,8.6-3.8,8.6-8.5c0-4.5-3.4-6.2-7.9-6.6
	c2.9-1.9,3.4-6.1,3.4-9.8c0-5.1-2.1-8.6-6.9-9.7c0.1-0.7,1.3-3.3,1.3-4c0-9.1-8.5-14.7-17.5-14.7c-0.3,0-0.6,0-0.8,0
	c-1.9-3.1-7.5-4.9-11.3-4.9c-5.9,0-8.4,4.5-8.4,10.3c0,1.7,0.4,3.4,1.1,4.8c-0.8-0.2-4.4,0-5.3,0c-6,0-8.3,4.5-8.3,10.6
	c0,3.5,1.6,6.5,4.1,8.6C29.3,340.8,24,344.1,24,349.6z M64.3,343.9c-0.1,0.1-0.1,0.1-0.2,0.2c0-0.1,0-0.1,0-0.2
	C64.2,343.9,64.2,343.9,64.3,343.9z"/>
<g>
	<path class="st25" d="M246.3,369c0,0,58.6-31,116.9-31s116.9,31,116.9,31v-1.2c0,0-58.6-32.1-116.9-32.1s-116.9,32.1-116.9,32.1
		V369z"/>
	<path class="st25" d="M246.3,360.8c0,0,58.6-31,116.9-31s116.9,31,116.9,31v-1.2c0,0-58.6-32.1-116.9-32.1s-116.9,32.1-116.9,32.1
		V360.8z"/>
	<g>
		<rect x="245.9" y="357.2" class="st25" width="1.6" height="18.2"/>
		<path class="st25" d="M247.9,357.1c0-0.8-0.5-1.5-1.2-1.5c-0.6,0-1.2,0.7-1.2,1.5c0,0.8,0.5,0.6,1.2,0.6
			C247.4,357.7,247.9,357.9,247.9,357.1z"/>
	</g>
	<rect x="479.3" y="357.4" class="st25" width="1.6" height="18.2"/>
	<path class="st25" d="M481.2,357.2c0-0.8-0.5-1.5-1.2-1.5c-0.6,0-1.2,0.7-1.2,1.5s0.5,0.6,1.2,0.6
		C480.7,357.9,481.2,358.1,481.2,357.2z"/>
	<g>
		<rect x="362.6" y="325.9" class="st25" width="1.6" height="18.2"/>
		<path class="st25" d="M364.6,325.8c0-0.8-0.5-1.5-1.2-1.5c-0.6,0-1.2,0.7-1.2,1.5c0,0.8,0.5,0.6,1.2,0.6
			C364,326.4,364.6,326.6,364.6,325.8z"/>
	</g>
	<g>
		<rect x="304.3" y="334.6" class="st25" width="1.6" height="18.2"/>
		<path class="st25" d="M306.2,334.5c0-0.8-0.5-1.5-1.2-1.5s-1.2,0.7-1.2,1.5s0.5,0.6,1.2,0.6S306.2,335.3,306.2,334.5z"/>
	</g>
	<g>
		<rect x="420.9" y="335.4" class="st25" width="1.6" height="18.2"/>
		<path class="st25" d="M422.9,335.3c0-0.8-0.5-1.5-1.2-1.5s-1.2,0.7-1.2,1.5s0.5,0.6,1.2,0.6S422.9,336.1,422.9,335.3z"/>
	</g>
	<g>
		<rect x="391.8" y="328.6" class="st25" width="1.6" height="18.2"/>
		<path class="st25" d="M393.7,328.5c0-0.8-0.5-1.5-1.2-1.5c-0.6,0-1.2,0.7-1.2,1.5c0,0.8,0.5,0.6,1.2,0.6
			C393.2,329.1,393.7,329.3,393.7,328.5z"/>
	</g>
	<g>
		<rect x="450.1" y="344.5" class="st25" width="1.6" height="18.2"/>
		<path class="st25" d="M452.1,344.4c0-0.8-0.5-1.5-1.2-1.5s-1.2,0.7-1.2,1.5s0.5,0.6,1.2,0.6S452.1,345.2,452.1,344.4z"/>
	</g>
	<g>
		<rect x="333.4" y="328.4" class="st25" width="1.6" height="18.2"/>
		<path class="st25" d="M335.4,328.3c0-0.8-0.5-1.5-1.2-1.5s-1.2,0.7-1.2,1.5s0.5,0.6,1.2,0.6S335.4,329.1,335.4,328.3z"/>
	</g>
	<g>
		<rect x="275.1" y="344.5" class="st25" width="1.6" height="18.2"/>
		<path class="st25" d="M277.1,344.4c0-0.8-0.5-1.5-1.2-1.5c-0.6,0-1.2,0.7-1.2,1.5s0.5,0.6,1.2,0.6
			C276.5,345,277.1,345.2,277.1,344.4z"/>
	</g>
</g>
<path class="st26" d="M480.1,374.9v20.6h-14c0-12.8-10.4-23.2-23.2-23.2s-23.2,10.4-23.2,23.2h-21.9c0-19.2-15.5-34.7-34.7-34.7
	c-19.2,0-34.7,15.5-34.7,34.7h-21.9c0-12.8-10.4-23.2-23.2-23.2s-23.2,10.4-23.2,23.2h-14v-20.6c0,0,57.9-31,116.9-31
	S480.1,374.9,480.1,374.9z"/>
<path class="st27" d="M363.2,352.4c-23.8,0-43.1,19.3-43.1,43.1h8.4c0-19.2,15.5-34.7,34.7-34.7c19.2,0,34.7,15.5,34.7,34.7h8.4
	C406.3,371.7,387,352.4,363.2,352.4z"/>
<rect x="359.2" y="344.1" class="st28" width="8" height="8"/>
<path class="st27" d="M283.4,366.7c-15.9,0-28.8,12.9-28.8,28.8h5.6c0-12.8,10.4-23.2,23.2-23.2s23.2,10.4,23.2,23.2h5.7
	C312.2,379.6,299.3,366.7,283.4,366.7z"/>
<path class="st27" d="M442.9,366.7c-15.9,0-28.8,12.9-28.8,28.8h5.7c0-12.8,10.4-23.2,23.2-23.2s23.2,10.4,23.2,23.2h5.6
	C471.8,379.6,458.8,366.7,442.9,366.7z"/>
<g>
	<path class="st29" d="M360.9,348.5h-0.4v-1.1l-0.4,0.2l-0.2-0.3l0.7-0.4h0.3V348.5z"/>
	<path class="st29" d="M362.7,347.9c0,0.3-0.1,0.6-0.2,0.8c-0.1,0.2-0.4,0.3-0.6,0.3c-0.2,0-0.4-0.1-0.6-0.2l0.2-0.3
		c0.1,0.1,0.3,0.1,0.4,0.1c0.2,0,0.3-0.1,0.4-0.2c0.1-0.1,0.1-0.2,0.1-0.4c0,0.1-0.1,0.1-0.2,0.2c-0.1,0-0.2,0.1-0.3,0.1
		c-0.2,0-0.3-0.1-0.5-0.2c-0.1-0.1-0.2-0.3-0.2-0.5c0-0.2,0.1-0.4,0.2-0.5s0.3-0.2,0.5-0.2c0.2,0,0.4,0.1,0.6,0.3
		C362.6,347.3,362.7,347.6,362.7,347.9z M362.2,347.6c0-0.1,0-0.2-0.1-0.3s-0.1-0.1-0.2-0.1c-0.1,0-0.2,0-0.2,0.1
		c-0.1,0.1-0.1,0.2-0.1,0.3c0,0.1,0,0.2,0.1,0.3c0.1,0.1,0.1,0.1,0.2,0.1c0.1,0,0.2,0,0.2-0.1C362.2,347.8,362.2,347.7,362.2,347.6z
		"/>
	<path class="st29" d="M364.4,347.9c0,0.3-0.1,0.6-0.2,0.8c-0.1,0.2-0.4,0.3-0.6,0.3c-0.2,0-0.4-0.1-0.6-0.2l0.2-0.3
		c0.1,0.1,0.3,0.1,0.4,0.1c0.2,0,0.3-0.1,0.4-0.2c0.1-0.1,0.1-0.2,0.1-0.4c0,0.1-0.1,0.1-0.2,0.2c-0.1,0-0.2,0.1-0.3,0.1
		c-0.2,0-0.3-0.1-0.5-0.2c-0.1-0.1-0.2-0.3-0.2-0.5c0-0.2,0.1-0.4,0.2-0.5s0.3-0.2,0.5-0.2c0.2,0,0.4,0.1,0.6,0.3
		C364.4,347.3,364.4,347.6,364.4,347.9z M364,347.6c0-0.1,0-0.2-0.1-0.3s-0.1-0.1-0.2-0.1c-0.1,0-0.2,0-0.2,0.1
		c-0.1,0.1-0.1,0.2-0.1,0.3c0,0.1,0,0.2,0.1,0.3c0.1,0.1,0.1,0.1,0.2,0.1c0.1,0,0.2,0,0.2-0.1C364,347.8,364,347.7,364,347.6z"/>
	<path class="st29" d="M366.4,347.7c0,0.3-0.1,0.5-0.2,0.6c-0.2,0.2-0.4,0.2-0.6,0.2c-0.2,0-0.5-0.1-0.6-0.2
		c-0.2-0.2-0.2-0.4-0.2-0.6c0-0.2,0.1-0.4,0.2-0.6c0.2-0.2,0.4-0.2,0.6-0.2c0.3,0,0.5,0.1,0.6,0.2S366.4,347.5,366.4,347.7z
		 M366,347.7c0-0.1,0-0.3-0.1-0.4c-0.1-0.1-0.2-0.1-0.3-0.1c-0.1,0-0.2,0-0.3,0.1c-0.1,0.1-0.1,0.2-0.1,0.4c0,0.2,0,0.3,0.1,0.4
		s0.2,0.1,0.3,0.1c0.1,0,0.2-0.1,0.3-0.2C365.9,348,366,347.9,366,347.7z"/>
</g>
<polygon class="st26" points="246.3,374.9 203,395.6 246.3,395.5 "/>
<polygon class="st26" points="480.1,374.9 523.3,395.6 480.1,395.5 "/>
<path class="st22" d="M217.4,396.7c0,0-7.5-1.5-13.3-1.4c-5.6,0.1-12,1.5-12,1.5s4.7-4.2,5.2-5.5c2.8-7-1.5-28.4-1.5-28.4l-12.2-7.4
	l-6-15.9l3,0l6,14.1l12.2,5.3l-2.7-12.2l0-9.2l2.4,0l0.3,9.5l5.7,11.9l14.5-19.5l2.2,2.5l-12.5,17l12.6,1.1l10.9-10.7l1.5,1.8
	l-10.7,12.5l-13.7,1.2c0,0-1.8,23.1,0.4,25.8C211.8,393.5,217.4,396.7,217.4,396.7z"/>
<path class="st23" d="M252.2,349c0,8.7-8.3,14.6-17,14.6c-5.9,0-7.5-4.9-10.2-9.6c-2.2,1.1-4.8,2.3-7.4,1.8
	c-5.9-1.1-8.3-2.6-13.9-7.6c-2.8,3.2-6.8,5.3-11.4,5.3c-5.2,0-9.8-2.6-12.5-6.5c-3.9,8.2-3.5,9.8-13,11.6c-7.1,1.4-10.2-4.5-13.2-13
	c-2.3-6.9,5.8-13.1,13.1-13.2c1,0,2.1,0.1,3,0.3c-3-3-4.9-7.2-4.9-11.8c0-9.3,5.2-16.7,14.5-16.7c1.2,0,4.6,0,5.7,0.2
	c-1-2-1.5-4.3-1.5-6.7c0-8.7,4.8-15.6,13.4-15.6c6,0,13.4,3.1,16.1,8c1.1-0.3,2.3-0.4,3.5-0.4c8.6,0,15.5,5.4,15.5,14
	c0,2.5-0.5,6.3-1.5,8.4c1.3-0.5,2.6-0.7,4.1-0.7c6.5,0,9.9,5,9.9,11.5c0,3.2,0.7,6.4-1.3,8.5C249.6,333.2,252.2,342,252.2,349z"/>
<path class="st24" d="M172.6,349.6c0,5.7,4.6,10.4,10.4,10.5c4.3,0,9.1-1.3,10.7-5.1c2,1.7,6.4,2.5,9.2,2.6c3.9,0,5.6-1.7,7.7-4.7
	c1,4.7,5.2,8.2,10.1,8.2c0.8,0,1.6-0.1,2.4-0.3c1.2,3.2,4.3,3.6,8,3.6c4.7,0,8.6-3.8,8.6-8.5c0-4.5-3.4-6.2-7.9-6.6
	c2.9-1.9,3.4-6.1,3.4-9.8c0-5.1-2.1-8.6-6.9-9.7c0.1-0.7,1.3-3.3,1.3-4c0-9.1-8.5-14.7-17.5-14.7c-0.3,0-0.6,0-0.8,0
	c-1.9-3.1-7.5-4.9-11.3-4.9c-5.9,0-8.4,4.5-8.4,10.3c0,1.7,0.4,3.4,1.1,4.8c-0.8-0.2-4.4,0-5.3,0c-6,0-8.3,4.5-8.3,10.6
	c0,3.5,1.6,6.5,4.1,8.6C178,340.8,172.7,344.1,172.6,349.6z M212.9,343.9c-0.1,0.1-0.1,0.1-0.2,0.2c0-0.1,0-0.1,0-0.2
	C212.8,343.9,212.9,343.9,212.9,343.9z"/>
<path class="st22" d="M546.8,397.1c0,0-10.1-2.1-17.9-1.9c-7.5,0.2-16.2,2-16.2,2s6.3-5.6,7-7.4c3.8-9.4-2-38.3-2-38.3l-16.5-9.9
	l-8.1-21.4l4,0l8.1,19l16.4,7.1l-3.7-16.4l-0.1-12.4l3.2,0l0.5,12.8l7.7,16l19.5-26.3l3,3.4l-16.8,22.9l16.9,1.5l14.6-14.5l2,2.4
	l-14.4,16.9l-18.4,1.7c0,0-2.4,31.1,0.5,34.7C539.2,392.7,546.8,397.1,546.8,397.1z"/>
<path class="st23" d="M592.3,332.9c0,11.7-11.2,19.7-22.9,19.7c-7.9,0-10.1-6.6-13.7-13c-3,1.5-6.4,3.1-9.9,2.4
	c-8-1.5-11.1-3.5-18.7-10.3c-3.7,4.3-9.2,7.1-15.4,7.1c-7,0-13.2-3.5-16.8-8.8c-5.3,11.1-4.7,13.2-17.5,15.7
	c-9.6,1.8-13.8-6.1-17.7-17.6c-3.2-9.2,7.8-17.7,17.6-17.7c1.4,0,2.8,0.2,4.1,0.5c-4.1-4.1-6.6-9.7-6.6-15.9
	c-0.1-12.5,7-22.4,19.5-22.5c1.6,0,6.2-0.1,7.7,0.3c-1.3-2.7-2.1-5.8-2.1-9.1c0-11.7,6.4-21,18.1-21.1c8,0,18,4.2,21.7,10.8
	c1.5-0.3,3.1-0.5,4.7-0.5c11.6,0,20.9,7.3,20.9,18.8c0,3.3-0.6,8.5-2,11.3c1.7-0.6,3.5-1,5.5-1c8.8,0,13.3,6.7,13.4,15.5
	c0,4.3,0.9,8.6-1.8,11.4C588.8,311.5,592.2,323.4,592.3,332.9z"/>
<path class="st24" d="M544.4,317.3c3.4-2.7,5.5-6.9,5.5-11.5c0-8.1-3-14.3-11.2-14.2c-1.2,0-6-0.3-7.1,0c1-2,1.6-4.2,1.5-6.5
	c0-7.9-3.4-14-11.3-13.9c-5.2,0-12.8,2.5-15.3,6.6c-0.4,0-0.7,0-1.1,0c-12.2,0-23.7,7.6-23.6,19.8c0,1,1.6,4.5,1.8,5.4
	c-6.5,1.5-9.4,6.2-9.3,13.1c0,5,0.7,10.6,4.6,13.2c-6,0.5-10.6,2.8-10.6,8.9c0,6.4,5.2,11.5,11.6,11.5c4.9,0,9.1-0.4,10.8-4.8
	c1,0.2,2.1,0.4,3.2,0.4c6.7,0,12.3-4.8,13.7-11.1c2.9,4,5.1,6.3,10.4,6.3c3.8,0,9.7-1.2,12.4-3.4c2.2,5,8.6,6.8,14.4,6.8
	c7.7,0,14-6.3,14-14.1C558.8,322.1,551.7,317.8,544.4,317.3z M504.9,321.9c0,0.1,0,0.2,0,0.3c-0.1-0.1-0.1-0.2-0.2-0.3
	C504.7,321.9,504.8,321.9,504.9,321.9z"/>
</svg>
